<svg width="33" height="32" viewBox="0 0 33 32" fill="none" xmlns="http://www.w3.org/2000/svg">
<g clip-path="url(#clip0_436_1500)">
<path fill-rule="evenodd" clip-rule="evenodd" d="M9.81313 1.8124C9.75063 1.8124 9.75063 1.8124 9.68813 1.8124L6.37563 0.749901C6.18813 0.687401 6.06313 0.437401 6.12563 0.249901C6.18813 0.0624007 6.37563 -0.0625993 6.62563 -9.93218e-05L9.81313 1.0624L13.0631 -9.93218e-05C13.2506 -0.0625993 13.4381 0.0624007 13.5006 0.249901C13.5631 0.437401 13.5006 0.687401 13.2506 0.749901L9.93813 1.8124C9.87563 1.8124 9.87563 1.8124 9.81313 1.8124Z" fill="black"/>
<path fill-rule="evenodd" clip-rule="evenodd" d="M16.5006 1.8124C16.4381 1.8124 16.4381 1.8124 16.3756 1.8124L13.0631 0.749901C12.8756 0.687401 12.7506 0.437401 12.8131 0.249901C12.8756 0.0624007 13.0631 -0.0625993 13.2506 -9.93218e-05L16.5006 1.0624L19.7506 -9.93218e-05C19.9381 -0.0625993 20.1256 0.0624007 20.1881 0.249901C20.2506 0.437401 20.1256 0.687401 19.9381 0.749901L16.6256 1.8124C16.5631 1.8124 16.5631 1.8124 16.5006 1.8124Z" fill="black"/>
<path fill-rule="evenodd" clip-rule="evenodd" d="M23.1886 1.8124C23.1261 1.8124 23.1261 1.8124 23.0636 1.8124L19.7511 0.749901C19.5011 0.687401 19.4386 0.437401 19.5011 0.249901C19.5636 0.0624007 19.7511 -0.0625993 19.9386 -9.93218e-05L23.1886 1.0624L26.3761 -9.93218e-05C26.6261 -0.0625993 26.8136 0.0624007 26.8761 0.249901C26.9386 0.437401 26.8136 0.687401 26.6261 0.749901L23.3136 1.8124C23.2511 1.8124 23.2511 1.8124 23.1886 1.8124Z" fill="black"/>
<path fill-rule="evenodd" clip-rule="evenodd" d="M6.50098 6.6875C6.25098 6.6875 6.12598 6.5 6.12598 6.3125V0.375C6.12598 0.1875 6.25098 0 6.50098 0C6.68848 0 6.87598 0.1875 6.87598 0.375V6.3125C6.87598 6.5 6.68848 6.6875 6.50098 6.6875Z" fill="black"/>
<path fill-rule="evenodd" clip-rule="evenodd" d="M26.501 6.6875C26.3135 6.6875 26.126 6.5 26.126 6.3125V0.375C26.126 0.1875 26.3135 0 26.501 0C26.751 0 26.876 0.1875 26.876 0.375V6.3125C26.876 6.5 26.751 6.6875 26.501 6.6875Z" fill="black"/>
<path fill-rule="evenodd" clip-rule="evenodd" d="M26.501 6.6875H6.50098C6.25098 6.6875 6.12598 6.5 6.12598 6.3125C6.12598 6.125 6.25098 5.9375 6.50098 5.9375H26.501C26.751 5.9375 26.876 6.125 26.876 6.3125C26.876 6.5 26.751 6.6875 26.501 6.6875Z" fill="black"/>
<path fill-rule="evenodd" clip-rule="evenodd" d="M26.5004 31.9998C25.5629 31.9998 24.6254 31.6873 23.8754 31.1248C22.8754 30.4373 22.1879 29.3748 21.8754 28.0623C21.5629 26.6248 21.6879 24.9373 22.2504 22.9998L26.1254 6.24981C26.1879 5.99981 26.3754 5.87481 26.6254 5.93731C26.6879 5.93731 26.7504 5.99981 26.8129 6.06231C26.8129 6.12481 26.8754 6.18731 26.8754 6.24981L30.7504 22.9998C31.3754 24.9373 31.5004 26.6248 31.1254 28.0623C30.8129 29.3748 30.1254 30.4373 29.1879 31.1248C28.3754 31.6873 27.4379 31.9998 26.5004 31.9998ZM26.5004 7.99981L23.0004 23.1873C22.0004 26.4998 22.4379 29.2498 24.3129 30.5623C25.6254 31.4998 27.4379 31.4998 28.7504 30.5623C30.5629 29.2498 31.0629 26.4998 30.0629 23.1873L26.5004 7.99981Z" fill="black"/>
<path fill-rule="evenodd" clip-rule="evenodd" d="M26.5002 31.9998H6.50024C5.25024 31.9998 4.06274 31.4998 3.25024 30.6248C2.50024 29.8748 1.62524 28.4998 1.68774 26.1873C1.68774 25.1873 1.87524 24.1248 2.25024 22.9998L6.12524 6.24981C6.18774 5.99981 6.37524 5.87481 6.56274 5.93731C6.75024 5.99981 6.87524 6.18731 6.87524 6.37481L2.93774 23.1873C2.62524 24.2498 2.43774 25.3123 2.43774 26.2498C2.37524 27.8748 2.87524 29.1873 3.75024 30.1248C4.50024 30.8123 5.43774 31.2498 6.50024 31.2498H26.5002C26.7502 31.2498 26.8752 31.4373 26.8752 31.6248C26.8752 31.8123 26.7502 31.9998 26.5002 31.9998Z" fill="black"/>
<path fill-rule="evenodd" clip-rule="evenodd" d="M22.0625 26.5625H2.0625C1.8125 26.5625 1.6875 26.4375 1.6875 26.1875C1.6875 26 1.8125 25.8125 2.0625 25.8125H22.0625C22.3125 25.8125 22.4375 26 22.4375 26.1875C22.4375 26.4375 22.3125 26.5625 22.0625 26.5625Z" fill="black"/>
<path fill-rule="evenodd" clip-rule="evenodd" d="M24.125 3.6875H8.875C8.6875 3.6875 8.5 3.5625 8.5 3.3125C8.5 3.125 8.6875 2.9375 8.875 2.9375H24.125C24.3125 2.9375 24.5 3.125 24.5 3.3125C24.5 3.5625 24.3125 3.6875 24.125 3.6875Z" fill="black"/>
</g>
<defs>
<clipPath id="clip0_436_1500">
<rect width="32" height="32" fill="white" transform="translate(0.5)"/>
</clipPath>
</defs>
</svg>
