<svg width="26" height="33" viewBox="0 0 26 33" fill="none" xmlns="http://www.w3.org/2000/svg">
  <path d="M24.8246 6.7707C24.6496 6.7707 24.4996 6.9207 24.4996 7.0957V28.0707C24.4996 29.7957 19.8746 31.6707 12.9996 31.6707C6.12461 31.6707 1.49961 29.8207 1.49961 28.0707V7.0957C1.49961 6.9207 1.34961 6.7707 1.17461 6.7707C0.99961 6.7707 0.849609 6.9207 0.849609 7.0957V28.0707C0.849609 30.7457 7.02461 32.3457 12.9996 32.3457C18.9746 32.3457 25.1496 30.7457 25.1496 28.0707V7.0957C25.1496 6.9207 24.9996 6.7707 24.8246 6.7707ZM12.9996 8.8707C18.9746 8.8707 25.1496 7.2707 25.1496 4.5957C25.1496 1.9457 18.9746 0.345703 12.9996 0.345703C7.02461 0.345703 0.849609 1.9457 0.849609 4.6207C0.849609 7.2707 7.02461 8.8707 12.9996 8.8707ZM12.9996 1.0207C19.8746 1.0207 24.4996 2.8707 24.4996 4.6207C24.4996 6.3707 19.8746 8.1957 12.9996 8.1957C6.12461 8.1957 1.49961 6.3457 1.49961 4.6207C1.49961 2.8957 6.12461 1.0207 12.9996 1.0207ZM12.9996 6.8707C16.7996 6.8707 20.6496 6.0957 20.6496 4.5957C20.6496 3.0957 16.7996 2.3457 12.9996 2.3457C9.19961 2.3457 5.34961 3.1207 5.34961 4.6207C5.34961 6.1207 9.19961 6.8707 12.9996 6.8707ZM12.9996 3.0207C17.2496 3.0207 19.9746 3.9707 19.9746 4.6207C19.9746 5.2707 17.2496 6.1957 12.9996 6.1957C8.74961 6.1957 6.02461 5.2457 6.02461 4.5957C6.02461 3.9457 8.74961 3.0207 12.9996 3.0207Z" fill="black"/>
</svg>
