<?xml version="1.0" encoding="UTF-8"?>
<svg width="700pt" height="700pt" version="1.1" viewBox="0 0 700 700" xmlns="http://www.w3.org/2000/svg" xmlns:xlink="http://www.w3.org/1999/xlink">
 <defs>
  <symbol id="s" overflow="visible">
   <path d="m5.875-0.35938c-0.30469 0.16797-0.62109 0.28906-0.95312 0.35938-0.32422 0.082031-0.66406 0.125-1.0156 0.125-1.0625 0-1.9062-0.29688-2.5312-0.89062s-0.9375-1.3984-0.9375-2.4219c0-1.0312 0.3125-1.8438 0.9375-2.4375s1.4688-0.89062 2.5312-0.89062c0.35156 0 0.69141 0.042969 1.0156 0.125 0.33203 0.074219 0.64844 0.1875 0.95312 0.34375v1.3281c-0.30469-0.20703-0.60547-0.35938-0.90625-0.45312-0.29297-0.10156-0.60547-0.15625-0.9375-0.15625-0.58594 0-1.0469 0.19531-1.3906 0.57812-0.33594 0.375-0.5 0.89844-0.5 1.5625 0 0.65625 0.16406 1.1719 0.5 1.5469 0.34375 0.375 0.80469 0.5625 1.3906 0.5625 0.33203 0 0.64453-0.046875 0.9375-0.14062 0.30078-0.09375 0.60156-0.24219 0.90625-0.45312z"/>
  </symbol>
  <symbol id="b" overflow="visible">
   <path d="m4.3125-3.5c-0.13672-0.0625-0.27344-0.10156-0.40625-0.125-0.13672-0.03125-0.27344-0.046875-0.40625-0.046875-0.39844 0-0.70312 0.125-0.92188 0.375-0.21094 0.25-0.3125 0.60938-0.3125 1.0781v2.2188h-1.5312v-4.7969h1.5312v0.78125c0.19531-0.3125 0.42188-0.53906 0.67188-0.6875 0.25781-0.14453 0.57031-0.21875 0.9375-0.21875 0.050781 0 0.10156 0.007813 0.15625 0.015625 0.0625 0 0.14844 0.007812 0.26562 0.015625z"/>
  </symbol>
  <symbol id="a" overflow="visible">
   <path d="m5.5312-2.4062v0.42188h-3.5938c0.039062 0.36719 0.17188 0.64062 0.39062 0.82812 0.22656 0.17969 0.53906 0.26562 0.9375 0.26562 0.32031 0 0.64844-0.046875 0.98438-0.14062 0.34375-0.10156 0.69141-0.25 1.0469-0.4375v1.1719c-0.35547 0.14844-0.71484 0.25-1.0781 0.3125-0.36719 0.070312-0.73047 0.10938-1.0938 0.10938-0.86719 0-1.543-0.21875-2.0312-0.65625-0.48047-0.44531-0.71875-1.0664-0.71875-1.8594 0-0.78906 0.23438-1.4102 0.70312-1.8594 0.47656-0.44531 1.1328-0.67188 1.9688-0.67188 0.75 0 1.3477 0.23047 1.7969 0.6875 0.45703 0.46094 0.6875 1.0703 0.6875 1.8281zm-1.5781-0.51562c0-0.28906-0.089844-0.52344-0.26562-0.70312-0.16797-0.17578-0.38672-0.26562-0.65625-0.26562-0.30469 0-0.54688 0.085937-0.73438 0.25-0.17969 0.16797-0.29297 0.40625-0.34375 0.71875z"/>
  </symbol>
  <symbol id="e" overflow="visible">
   <path d="m2.8906-2.1562c-0.32422 0-0.57031 0.058594-0.73438 0.17188-0.15625 0.10547-0.23438 0.26172-0.23438 0.46875 0 0.19922 0.0625 0.35547 0.1875 0.46875 0.13281 0.10547 0.31641 0.15625 0.54688 0.15625 0.28906 0 0.53516-0.10156 0.73438-0.3125 0.19531-0.20703 0.29688-0.46875 0.29688-0.78125v-0.17188zm2.3438-0.57812v2.7344h-1.5469v-0.71875c-0.21094 0.29297-0.44531 0.50781-0.70312 0.64062-0.25 0.13281-0.5625 0.20312-0.9375 0.20312-0.49219 0-0.89062-0.14453-1.2031-0.4375-0.3125-0.28906-0.46875-0.66406-0.46875-1.125 0-0.5625 0.19141-0.97266 0.57812-1.2344 0.39453-0.26953 1.0039-0.40625 1.8281-0.40625h0.90625v-0.10938c0-0.25-0.10156-0.42578-0.29688-0.53125-0.1875-0.11328-0.48438-0.17188-0.89062-0.17188-0.32422 0-0.63281 0.03125-0.92188 0.09375-0.28125 0.0625-0.54297 0.16406-0.78125 0.29688v-1.1719c0.33203-0.082031 0.66016-0.14453 0.98438-0.1875 0.33203-0.039063 0.66406-0.0625 1-0.0625 0.86328 0 1.4883 0.17188 1.875 0.51562 0.38281 0.34375 0.57812 0.90234 0.57812 1.6719z"/>
  </symbol>
  <symbol id="d" overflow="visible">
   <path d="m2.4062-6.1719v1.375h1.5938v1.0938h-1.5938v2.0312c0 0.23047 0.046875 0.38672 0.14062 0.46875 0.09375 0.074219 0.26953 0.10938 0.53125 0.10938h0.78125v1.0938h-1.3125c-0.60547 0-1.0391-0.125-1.2969-0.375-0.25-0.25781-0.375-0.69141-0.375-1.2969v-2.0312h-0.76562v-1.0938h0.76562v-1.375z"/>
  </symbol>
  <symbol id="j" overflow="visible">
   <path d="m4-4.0938v-2.5781h1.5469v6.6719h-1.5469v-0.6875c-0.21094 0.28125-0.44531 0.49219-0.70312 0.625-0.25 0.125-0.54297 0.1875-0.875 0.1875-0.59375 0-1.0859-0.23438-1.4688-0.70312-0.375-0.46875-0.5625-1.0703-0.5625-1.8125 0-0.73828 0.1875-1.3438 0.5625-1.8125 0.38281-0.47656 0.875-0.71875 1.4688-0.71875 0.33203 0 0.625 0.070313 0.875 0.20312 0.25781 0.13672 0.49219 0.34375 0.70312 0.625zm-1 3.1094c0.32031 0 0.56641-0.11719 0.73438-0.35938 0.17578-0.23828 0.26562-0.58594 0.26562-1.0469 0-0.45703-0.089844-0.80469-0.26562-1.0469-0.16797-0.23828-0.41406-0.35938-0.73438-0.35938-0.33594 0-0.58984 0.12109-0.76562 0.35938-0.16797 0.24219-0.25 0.58984-0.25 1.0469 0 0.46094 0.082031 0.80859 0.25 1.0469 0.17578 0.24219 0.42969 0.35938 0.76562 0.35938z"/>
  </symbol>
  <symbol id="i" overflow="visible">
   <path d="m3.2969-0.98438c0.32031 0 0.57031-0.11719 0.75-0.35938 0.17578-0.23828 0.26562-0.58594 0.26562-1.0469 0-0.45703-0.089844-0.80469-0.26562-1.0469-0.17969-0.23828-0.42969-0.35938-0.75-0.35938-0.33594 0-0.58984 0.12109-0.76562 0.35938-0.17969 0.24219-0.26562 0.58984-0.26562 1.0469 0 0.44922 0.085937 0.79688 0.26562 1.0469 0.17578 0.24219 0.42969 0.35938 0.76562 0.35938zm-1.0312-3.1094c0.21875-0.28125 0.45312-0.48828 0.70312-0.625 0.25781-0.13281 0.55469-0.20312 0.89062-0.20312 0.59375 0 1.0781 0.24219 1.4531 0.71875 0.38281 0.46875 0.57812 1.0742 0.57812 1.8125 0 0.74219-0.19531 1.3438-0.57812 1.8125-0.375 0.46875-0.85938 0.70312-1.4531 0.70312-0.33594 0-0.63281-0.070312-0.89062-0.20312-0.25-0.13281-0.48438-0.33594-0.70312-0.60938v0.6875h-1.5312v-6.6719h1.5312z"/>
  </symbol>
  <symbol id="h" overflow="visible">
   <path d="m0.10938-4.7969h1.5312l1.2969 3.25 1.0938-3.25h1.5312l-2.0156 5.25c-0.21094 0.53125-0.44922 0.89844-0.71875 1.1094-0.26172 0.21875-0.61719 0.32812-1.0625 0.32812h-0.89062v-1h0.48438c0.25781 0 0.44531-0.042969 0.5625-0.125 0.125-0.085937 0.21875-0.23438 0.28125-0.45312l0.046875-0.125z"/>
  </symbol>
  <symbol id="g" overflow="visible">
   <path d="m0.5-6.4062h5.375v1l-3.4375 4.1562h3.5312v1.25h-5.5781v-1l3.4375-4.1562h-3.3281z"/>
  </symbol>
  <symbol id="f" overflow="visible">
   <path d="m5.5625-2.9219v2.9219h-1.5469v-2.2344c0-0.41406-0.011719-0.70312-0.03125-0.85938-0.011719-0.15625-0.042969-0.26953-0.09375-0.34375-0.054687-0.10156-0.13281-0.17969-0.23438-0.23438-0.10547-0.0625-0.22656-0.09375-0.35938-0.09375-0.3125 0-0.5625 0.125-0.75 0.375s-0.28125 0.59375-0.28125 1.0312v2.3594h-1.5312v-6.6719h1.5312v2.5781c0.23828-0.28125 0.48828-0.48828 0.75-0.625 0.25781-0.13281 0.54688-0.20312 0.85938-0.20312 0.55078 0 0.96875 0.17188 1.25 0.51562 0.28906 0.34375 0.4375 0.83984 0.4375 1.4844z"/>
  </symbol>
  <symbol id="c" overflow="visible">
   <path d="m3.0156-3.8281c-0.33594 0-0.58984 0.125-0.76562 0.375-0.17969 0.24219-0.26562 0.59375-0.26562 1.0625 0 0.46094 0.085937 0.8125 0.26562 1.0625 0.17578 0.24219 0.42969 0.35938 0.76562 0.35938 0.34375 0 0.60156-0.11719 0.78125-0.35938 0.17578-0.25 0.26562-0.60156 0.26562-1.0625 0-0.46875-0.089844-0.82031-0.26562-1.0625-0.17969-0.25-0.4375-0.375-0.78125-0.375zm0-1.0938c0.83203 0 1.4766 0.22656 1.9375 0.67188 0.46875 0.44922 0.70312 1.0703 0.70312 1.8594 0 0.78125-0.23438 1.3984-0.70312 1.8438-0.46094 0.44922-1.1055 0.67188-1.9375 0.67188-0.82422 0-1.4688-0.22266-1.9375-0.67188-0.46875-0.44531-0.70312-1.0625-0.70312-1.8438 0-0.78906 0.23438-1.4102 0.70312-1.8594 0.46875-0.44531 1.1133-0.67188 1.9375-0.67188z"/>
  </symbol>
  <symbol id="r" overflow="visible">
   <path d="m3.8906-6.6719v1h-0.84375c-0.21875 0-0.37109 0.042969-0.45312 0.125-0.085938 0.085937-0.125 0.21875-0.125 0.40625v0.34375h1.3125v1.0938h-1.3125v3.7031h-1.5312v-3.7031h-0.76562v-1.0938h0.76562v-0.34375c0-0.51953 0.14453-0.90625 0.4375-1.1562 0.28906-0.25 0.73828-0.375 1.3438-0.375z"/>
  </symbol>
  <symbol id="q" overflow="visible">
   <path d="m5.1875-4c0.19531-0.30078 0.42578-0.53125 0.6875-0.6875 0.26953-0.15625 0.56641-0.23438 0.89062-0.23438 0.55078 0 0.96875 0.17188 1.25 0.51562 0.28906 0.34375 0.4375 0.83984 0.4375 1.4844v2.9219h-1.5469v-2.5c0.007812-0.039062 0.015625-0.082031 0.015625-0.125v-0.17188c0-0.33203-0.054687-0.57812-0.15625-0.73438-0.09375-0.15625-0.25781-0.23438-0.48438-0.23438-0.29297 0-0.51562 0.12109-0.67188 0.35938-0.15625 0.24219-0.24219 0.58984-0.25 1.0469v2.3594h-1.5312v-2.5c0-0.53125-0.046875-0.875-0.14062-1.0312s-0.26172-0.23438-0.5-0.23438c-0.29297 0-0.52344 0.125-0.6875 0.375-0.15625 0.24219-0.23438 0.58594-0.23438 1.0312v2.3594h-1.5312v-4.7969h1.5312v0.70312c0.19531-0.26953 0.41406-0.47266 0.65625-0.60938 0.23828-0.14453 0.50781-0.21875 0.8125-0.21875 0.33203 0 0.625 0.085937 0.875 0.25 0.25 0.15625 0.44141 0.38281 0.57812 0.67188z"/>
  </symbol>
  <symbol id="p" overflow="visible">
   <path d="m0.8125-6.4062h1.8438l2.3281 4.3906v-4.3906h1.5625v6.4062h-1.8438l-2.3281-4.3906v4.3906h-1.5625z"/>
  </symbol>
  <symbol id="o" overflow="visible">
   <path d="m0.6875-1.875v-2.9219h1.5469v0.46875c0 0.26172-0.007813 0.58984-0.015625 0.98438v0.78125c0 0.38672 0.007812 0.66797 0.03125 0.84375 0.019531 0.16797 0.054688 0.29297 0.10938 0.375 0.0625 0.09375 0.14062 0.17188 0.23438 0.23438 0.10156 0.054687 0.22266 0.078125 0.35938 0.078125 0.32031 0 0.57031-0.125 0.75-0.375 0.1875-0.25 0.28125-0.59375 0.28125-1.0312v-2.3594h1.5312v4.7969h-1.5312v-0.6875c-0.24219 0.27344-0.49219 0.47656-0.75 0.60938-0.25 0.13281-0.53125 0.20312-0.84375 0.20312-0.55469 0-0.97656-0.16406-1.2656-0.5-0.29297-0.34375-0.4375-0.84375-0.4375-1.5z"/>
  </symbol>
  <symbol id="n" overflow="visible">
   <path d="m5.5625-2.9219v2.9219h-1.5469v-2.2344c0-0.41406-0.011719-0.70312-0.03125-0.85938-0.011719-0.15625-0.042969-0.26953-0.09375-0.34375-0.054687-0.10156-0.13281-0.17969-0.23438-0.23438-0.10547-0.0625-0.22656-0.09375-0.35938-0.09375-0.3125 0-0.5625 0.125-0.75 0.375s-0.28125 0.59375-0.28125 1.0312v2.3594h-1.5312v-4.7969h1.5312v0.70312c0.23828-0.28125 0.48828-0.48828 0.75-0.625 0.25781-0.13281 0.54688-0.20312 0.85938-0.20312 0.55078 0 0.96875 0.17188 1.25 0.51562 0.28906 0.34375 0.4375 0.83984 0.4375 1.4844z"/>
  </symbol>
  <symbol id="m" overflow="visible">
   <path d="m0.8125-6.4062h2.7344c0.8125 0 1.4375 0.18359 1.875 0.54688 0.4375 0.36719 0.65625 0.88281 0.65625 1.5469 0 0.66797-0.21875 1.1836-0.65625 1.5469-0.4375 0.36719-1.0625 0.54688-1.875 0.54688h-1.0938v2.2188h-1.6406zm1.6406 1.2031v1.7812h0.92188c0.3125 0 0.55469-0.078125 0.73438-0.23438 0.17578-0.15625 0.26562-0.375 0.26562-0.65625 0-0.28906-0.089844-0.50781-0.26562-0.65625-0.17969-0.15625-0.42188-0.23438-0.73438-0.23438z"/>
  </symbol>
  <symbol id="l" overflow="visible">
   <path d="m0.73438-4.7969h1.5312v4.7188c0 0.63281-0.15625 1.1172-0.46875 1.4531-0.30469 0.34375-0.74609 0.51562-1.3281 0.51562h-0.76562v-1h0.26562c0.28906 0 0.48828-0.070313 0.59375-0.20312 0.11328-0.125 0.17188-0.38281 0.17188-0.76562zm0-1.875h1.5312v1.25h-1.5312z"/>
  </symbol>
  <symbol id="k" overflow="visible">
   <path d="m4.625-4.6562v1.25c-0.21094-0.13281-0.42188-0.23828-0.64062-0.3125-0.21094-0.070312-0.42969-0.10938-0.65625-0.10938-0.42969 0-0.76172 0.13281-1 0.39062-0.23047 0.25-0.34375 0.60156-0.34375 1.0469 0 0.44922 0.11328 0.79688 0.34375 1.0469 0.23828 0.25 0.57031 0.375 1 0.375 0.25 0 0.47656-0.035156 0.6875-0.10938 0.21875-0.070313 0.42188-0.17578 0.60938-0.3125v1.25c-0.25 0.085938-0.5 0.14453-0.75 0.1875-0.24219 0.050781-0.48438 0.078125-0.73438 0.078125-0.86719 0-1.543-0.21875-2.0312-0.65625-0.49219-0.44531-0.73438-1.0664-0.73438-1.8594 0-0.78906 0.24219-1.4102 0.73438-1.8594 0.48828-0.44531 1.1641-0.67188 2.0312-0.67188 0.25 0 0.49219 0.027344 0.73438 0.078125 0.25 0.042969 0.5 0.10547 0.75 0.1875z"/>
  </symbol>
 </defs>
 <g>
  <path d="m152.51 270.34 112.35 129.91 328.28-389.72c24.578-26.332 63.199 1.7539 43.887 31.598l-323.01 493.29c-24.578 31.598-57.93 35.109-86.02 3.5117l-163.26-194.86c-31.598-45.645 49.152-110.59 87.773-73.73z" fill-rule="#EB2240"/>
  <use x="57.710938" y="586.332031" xlink:href="#s"/>
  <use x="64.152344" y="586.332031" xlink:href="#b"/>
  <use x="68.480469" y="586.332031" xlink:href="#a"/>
  <use x="74.433594" y="586.332031" xlink:href="#e"/>
  <use x="80.359375" y="586.332031" xlink:href="#d"/>
  <use x="84.554688" y="586.332031" xlink:href="#a"/>
  <use x="90.507812" y="586.332031" xlink:href="#j"/>
  <use x="99.847656" y="586.332031" xlink:href="#i"/>
  <use x="106.128906" y="586.332031" xlink:href="#h"/>
  <use x="114.90625" y="586.332031" xlink:href="#g"/>
  <use x="121.269531" y="586.332031" xlink:href="#e"/>
  <use x="127.195312" y="586.332031" xlink:href="#f"/>
  <use x="133.441406" y="586.332031" xlink:href="#b"/>
  <use x="137.769531" y="586.332031" xlink:href="#c"/>
  <use x="143.800781" y="586.332031" xlink:href="#a"/>
  <use x="57.710938" y="595.109375" xlink:href="#r"/>
  <use x="61.53125" y="595.109375" xlink:href="#b"/>
  <use x="65.859375" y="595.109375" xlink:href="#c"/>
  <use x="71.890625" y="595.109375" xlink:href="#q"/>
  <use x="84.089844" y="595.109375" xlink:href="#d"/>
  <use x="88.285156" y="595.109375" xlink:href="#f"/>
  <use x="94.535156" y="595.109375" xlink:href="#a"/>
  <use x="103.542969" y="595.109375" xlink:href="#p"/>
  <use x="110.890625" y="595.109375" xlink:href="#c"/>
  <use x="116.921875" y="595.109375" xlink:href="#o"/>
  <use x="123.167969" y="595.109375" xlink:href="#n"/>
  <use x="132.472656" y="595.109375" xlink:href="#m"/>
  <use x="138.90625" y="595.109375" xlink:href="#b"/>
  <use x="143.234375" y="595.109375" xlink:href="#c"/>
  <use x="149.265625" y="595.109375" xlink:href="#l"/>
  <use x="152.273438" y="595.109375" xlink:href="#a"/>
  <use x="158.226562" y="595.109375" xlink:href="#k"/>
  <use x="163.429688" y="595.109375" xlink:href="#d"/>
 </g>
</svg>
