<svg class="header-mobile-logo" width="66" height="56" viewBox="0 0 66 56" fill="none" xmlns="http://www.w3.org/2000/svg">
<path d="M2.74389 18.8457C2.57391 19.196 2.31893 19.456 1.97896 19.6258C1.64962 19.7956 1.3309 19.8805 1.0228 19.8805C0.735955 19.8805 0.491602 19.8115 0.289746 19.6735C0.0772656 19.5356 -0.0183506 19.3286 0.00289746 19.0527C0.00289746 18.989 0.0188335 18.92 0.0507055 18.8457C0.0719536 18.7608 0.103826 18.6706 0.146322 18.5751C0.241938 18.3417 0.385362 18.018 0.576594 17.6041C0.767827 17.1796 0.985619 16.7126 1.22997 16.2032C1.47432 15.6938 1.73461 15.1579 2.01084 14.5954C2.28706 14.033 2.55266 13.4811 2.80764 12.9399C3.06261 12.3986 3.29634 11.8946 3.50882 11.4276C3.73193 10.9607 3.90722 10.568 4.03471 10.2496C4.30031 9.7296 4.52342 9.31041 4.70403 8.99203C4.88463 8.66305 5.04399 8.40304 5.18211 8.21201C5.33084 8.01038 5.46895 7.85649 5.59644 7.75037C5.72393 7.64424 5.86735 7.54873 6.02672 7.46383C6.48355 7.23036 6.88195 7.08709 7.22192 7.03402C7.57251 6.97035 7.93373 6.9279 8.30557 6.90667C8.46493 6.89606 8.65085 6.87484 8.86333 6.843C9.07581 6.81116 9.28829 6.77932 9.50077 6.74749C9.71325 6.70504 9.92042 6.6732 10.1223 6.65197C10.3348 6.62014 10.5154 6.60422 10.6641 6.60422C11.0147 6.60422 11.2697 6.69442 11.429 6.87484C11.5884 7.04464 11.6574 7.25158 11.6362 7.49567C11.6256 7.73976 11.5459 8.00507 11.3972 8.29161C11.259 8.57815 11.0731 8.85938 10.8394 9.1353C10.6057 9.40061 10.3348 9.65001 10.0267 9.88348C9.71856 10.1063 9.39453 10.2761 9.05456 10.3929H9.0705C8.82614 10.4672 8.6296 10.5202 8.48086 10.5521C8.33213 10.5733 8.20995 10.5839 8.11434 10.5839C8.00809 10.5839 7.92841 10.5733 7.87529 10.5521C7.8328 10.5308 7.79561 10.5096 7.76374 10.4884C7.74249 10.4672 7.72656 10.4459 7.71593 10.4247C7.71593 10.4035 7.7 10.3929 7.66813 10.3929C7.63625 10.3929 7.59907 10.4194 7.55657 10.4725C7.51408 10.5255 7.46627 10.5892 7.41315 10.6635C7.37065 10.7378 7.32285 10.8174 7.26973 10.9023C7.22723 10.9766 7.19536 11.0349 7.17411 11.0774C6.86601 11.6292 6.57385 12.0484 6.29763 12.335C6.0214 12.6109 5.83548 12.7913 5.73987 12.8762L7.39721 12.7489H7.47689C7.72125 12.7489 7.90185 12.8231 8.01872 12.9717C8.14621 13.1203 8.20464 13.2848 8.19402 13.4652C8.17277 13.6987 8.0559 13.8632 7.84342 13.9587C7.65219 14.0436 7.51939 14.1285 7.44502 14.2134C7.38128 14.2877 7.32816 14.3673 7.28566 14.4522C7.25379 14.5265 7.21129 14.6007 7.15817 14.675C7.11568 14.7493 7.00944 14.8236 6.83945 14.8979C6.66947 14.9616 6.41449 15.0252 6.07452 15.0889C5.73455 15.1526 5.2671 15.211 4.67215 15.264L4.06658 16.3783C3.90722 16.6437 3.74255 16.909 3.57257 17.1743C3.41321 17.429 3.29103 17.6465 3.20604 17.8269C3.18479 17.8482 3.15823 17.8959 3.12636 17.9702C3.10511 18.0339 3.07324 18.1188 3.03074 18.2249C2.99887 18.3204 2.95637 18.4266 2.90325 18.5433C2.86076 18.6494 2.81295 18.7449 2.75983 18.8298L2.74389 18.8457Z" fill="#fff"/>
<path d="M14.1476 6.73157C14.4132 6.73157 14.631 6.83769 14.801 7.04994C14.9816 7.25158 15.0666 7.49036 15.056 7.76629C15.0453 7.93609 14.971 8.16956 14.8329 8.46671C14.6948 8.75325 14.5141 9.08755 14.291 9.4696C14.0786 9.84103 13.8448 10.2443 13.5899 10.6794C13.3455 11.1145 13.1065 11.5603 12.8727 12.0166C12.6496 12.4729 12.4478 12.924 12.2672 13.3697C12.0866 13.8154 11.9697 14.2399 11.9166 14.6432C11.8953 14.8873 11.9644 15.0093 12.1237 15.0093C12.2406 15.0093 12.4212 14.8979 12.6656 14.675C12.9099 14.4416 13.1861 14.1391 13.4942 13.7677C13.8023 13.3962 14.1317 12.977 14.4823 12.5101C14.8435 12.0431 15.1941 11.5656 15.534 11.0774C15.8846 10.5892 16.214 10.117 16.5221 9.66062C16.8408 9.20428 17.117 8.80101 17.3508 8.45079C17.4676 8.25977 17.5845 8.06344 17.7013 7.8618C17.8288 7.66016 17.9616 7.47975 18.0997 7.32056C18.2485 7.16137 18.4078 7.02872 18.5778 6.92259C18.7478 6.81647 18.9284 6.76341 19.1197 6.76341C19.2684 6.76341 19.4278 6.80586 19.5977 6.89076C19.7783 6.71034 19.9643 6.58299 20.1555 6.50871C20.3467 6.42381 20.5326 6.38136 20.7133 6.38136C20.947 6.38136 21.1382 6.44503 21.287 6.57238C21.4357 6.69973 21.4994 6.89606 21.4782 7.16138V7.28872C21.4463 7.50098 21.2551 7.94139 20.9045 8.60998C20.5645 9.27857 20.1396 10.1117 19.6296 11.1092C19.1197 12.0962 18.5672 13.2105 17.9723 14.4522C17.3879 15.6938 16.8355 16.9992 16.3149 18.3682C16.2724 18.5698 16.1768 18.7555 16.0281 18.9253C15.89 19.0845 15.72 19.2172 15.5181 19.3233C15.3269 19.44 15.1197 19.5303 14.8966 19.5939C14.6841 19.6576 14.477 19.6894 14.2751 19.6894C13.9351 19.6894 13.7014 19.6205 13.5739 19.4825C13.4571 19.3445 13.4092 19.1164 13.4305 18.798C13.4305 18.7449 13.4305 18.6972 13.4305 18.6547C13.4411 18.6123 13.4517 18.5645 13.4624 18.5115H13.303C13.2711 18.7237 13.1596 18.9041 12.9683 19.0527C12.7877 19.2119 12.5699 19.3392 12.315 19.4347C12.0706 19.5303 11.8263 19.5992 11.5819 19.6417C11.3376 19.6841 11.1463 19.7054 11.0082 19.7054C10.5939 19.7054 10.2114 19.647 9.86082 19.5303C9.52085 19.4135 9.22869 19.2437 8.98434 19.0209C8.75061 18.798 8.57001 18.5221 8.44252 18.1931C8.32565 17.8641 8.27784 17.4873 8.29909 17.0628C8.33096 16.3943 8.47439 15.6832 8.72937 14.9297C8.98434 14.1762 9.29244 13.4281 9.65366 12.6852C10.0149 11.9317 10.4026 11.2047 10.817 10.5043C11.2313 9.79328 11.6138 9.15122 11.9644 8.57815C12.0706 8.37651 12.1981 8.16956 12.3468 7.95731C12.4956 7.73445 12.6603 7.53281 12.8409 7.3524C13.0215 7.17199 13.218 7.02341 13.4305 6.90667C13.6536 6.78994 13.8926 6.73157 14.1476 6.73157Z" fill="#fff"/>
<path d="M24.9722 18.9094C24.4728 19.1747 23.9204 19.4029 23.3148 19.5939C22.7199 19.785 22.1355 19.8805 21.5618 19.8805C21.1369 19.8805 20.7385 19.8327 20.3666 19.7372C19.9948 19.6523 19.6708 19.4984 19.3946 19.2756C19.1183 19.0527 18.9005 18.7608 18.7412 18.4C18.5924 18.0286 18.534 17.5722 18.5659 17.031C18.6084 16.2987 18.7359 15.5718 18.9483 14.8501C19.1714 14.1285 19.453 13.4387 19.793 12.7807C20.1435 12.1121 20.5366 11.486 20.9722 10.9023C21.4184 10.3186 21.8753 9.79858 22.3427 9.34225C22.8208 8.8753 23.2989 8.47733 23.777 8.14834C24.255 7.81935 24.7012 7.58057 25.1156 7.43199C25.5618 7.21974 26.0133 7.06056 26.4701 6.95443C26.927 6.83769 27.3732 6.77932 27.8088 6.77932C27.9044 6.77932 27.9947 6.78463 28.0797 6.79524C28.1647 6.79524 28.2497 6.80055 28.3347 6.81116H28.3187C29.0199 6.90667 29.5352 7.14015 29.8645 7.51159C30.1939 7.87241 30.3479 8.33406 30.3267 8.89652C30.3054 9.2149 30.2204 9.57572 30.0717 9.979C29.9336 10.3717 29.7477 10.7643 29.5139 11.157C29.3864 11.3692 29.2271 11.555 29.0358 11.7141C28.8552 11.8627 28.6587 11.9901 28.4462 12.0962C28.2337 12.1917 28.0159 12.266 27.7928 12.3191C27.5804 12.3721 27.3838 12.3986 27.2032 12.3986C26.9164 12.3986 26.7092 12.3403 26.5817 12.2235C26.4648 12.1068 26.4117 11.9476 26.4223 11.746C26.433 11.6292 26.4701 11.5019 26.5339 11.3639C26.5976 11.2154 26.6348 11.0562 26.6454 10.8864C26.6561 10.706 26.6295 10.5839 26.5658 10.5202C26.5126 10.4566 26.433 10.4247 26.3267 10.4247C26.2417 10.4353 26.1514 10.4459 26.0558 10.4566C25.9602 10.4672 25.8699 10.4937 25.7849 10.5362L25.5299 10.6635C25.4131 10.7272 25.2962 10.7962 25.1793 10.8704C25.0625 10.9341 24.935 11.019 24.7969 11.1251C24.6694 11.2207 24.5206 11.348 24.3507 11.5072C24.1807 11.6664 23.9788 11.8733 23.7451 12.128C23.4264 12.4782 23.1501 12.8285 22.9164 13.1787C22.6827 13.5289 22.4915 13.8632 22.3427 14.1816C22.194 14.4999 22.0824 14.7865 22.0081 15.0412C21.9443 15.2959 21.9071 15.5028 21.8965 15.662C21.8859 15.8742 21.9124 16.06 21.9762 16.2192C22.0399 16.3677 22.1249 16.4898 22.2312 16.5853C22.3374 16.6808 22.4543 16.7551 22.5818 16.8081C22.7092 16.8506 22.8314 16.8718 22.9483 16.8718C23.1714 16.8718 23.3573 16.84 23.506 16.7763C23.6654 16.7126 23.8088 16.6437 23.9363 16.5694C24.0744 16.4845 24.2125 16.4102 24.3507 16.3465C24.4888 16.2828 24.6534 16.251 24.8447 16.251C24.9084 16.251 24.9934 16.2563 25.0996 16.2669C25.2059 16.2775 25.3068 16.3041 25.4024 16.3465C25.498 16.3783 25.5777 16.4261 25.6415 16.4898C25.7158 16.5534 25.753 16.6383 25.753 16.7445C25.7424 16.8612 25.7052 16.9886 25.6415 17.1265C25.5884 17.2645 25.5565 17.3918 25.5459 17.5086C25.5459 17.5722 25.5618 17.6253 25.5937 17.6678C25.6362 17.7102 25.6787 17.7474 25.7212 17.7792C25.7743 17.8004 25.8221 17.8269 25.8646 17.8588C25.9071 17.8906 25.9283 17.9278 25.9283 17.9702C25.9283 18.0551 25.8911 18.14 25.8168 18.2249C25.753 18.2992 25.6733 18.3788 25.5777 18.4637C25.4821 18.538 25.3759 18.6176 25.259 18.7025C25.1528 18.7768 25.0518 18.8457 24.9562 18.9094H24.9722Z" fill="#fff"/>
<path d="M32.2391 7.6071C32.441 7.27811 32.6641 7.11362 32.9084 7.11362C32.9828 7.11362 33.0678 7.12954 33.1634 7.16138C33.259 7.00219 33.3599 6.86422 33.4662 6.74749C33.5724 6.63075 33.7052 6.53524 33.8646 6.46095C34.0239 6.37605 34.2205 6.31768 34.4542 6.28584C34.688 6.24339 34.9907 6.22217 35.3626 6.22217C35.5432 6.22217 35.7185 6.23278 35.8885 6.25401C36.0691 6.27523 36.2231 6.31237 36.3506 6.36544C36.4887 6.4185 36.6003 6.49279 36.6853 6.5883C36.7703 6.68381 36.8074 6.80586 36.7968 6.95443C36.7862 7.03933 36.7649 7.13484 36.7331 7.24097C36.7118 7.33648 36.664 7.44261 36.5896 7.55934L36.2231 7.97323C36.0956 8.08997 35.9788 8.23854 35.8725 8.41896C35.7769 8.59937 35.66 8.7904 35.5219 8.99203V8.97611L35.1873 9.45368C34.9323 9.80389 34.6773 10.1541 34.4223 10.5043C34.1674 10.8439 33.9177 11.1941 33.6734 11.555V11.539L33.5937 11.6345L33.6734 11.7619C34.0346 11.5815 34.4277 11.3533 34.8526 11.0774C35.2776 10.7909 35.6866 10.5202 36.0797 10.2655C36.4834 10.0002 36.8499 9.77205 37.1793 9.58103C37.5192 9.39 37.7848 9.29449 37.9761 9.29449C38.0611 9.29449 38.1461 9.31571 38.2311 9.35816C38.3267 9.39 38.4382 9.43776 38.5657 9.50143L38.7091 9.56511C38.7941 9.58633 38.8526 9.65531 38.8844 9.77205C38.9163 9.87818 38.9269 10.0108 38.9163 10.17C38.9057 10.4141 38.8473 10.6741 38.741 10.95C38.6454 11.2154 38.5232 11.417 38.3745 11.555C37.9283 12.0219 37.4927 12.4199 37.0677 12.7489C36.6534 13.0672 36.2391 13.3379 35.8247 13.5607C35.4104 13.773 34.996 13.9481 34.5817 14.086C34.178 14.2134 33.769 14.3248 33.3546 14.4203L33.3706 14.5954C33.6574 14.6273 33.9124 14.7493 34.1355 14.9616C34.3692 15.1632 34.5658 15.4126 34.7251 15.7098C34.8951 15.9963 35.0279 16.3094 35.1235 16.649C35.2192 16.9779 35.2829 17.2751 35.3148 17.5404L35.4263 18.3363C35.4582 18.5274 35.4847 18.6919 35.506 18.8298C35.5272 18.9572 35.5379 19.0686 35.5379 19.1641C35.5272 19.3445 35.4263 19.5037 35.2351 19.6417C35.0545 19.7796 34.7676 19.8486 34.3745 19.8486C34.2364 19.838 34.0718 19.7584 33.8805 19.6098C33.6999 19.4719 33.5034 19.2968 33.2909 19.0845C33.0784 18.8829 32.8553 18.6653 32.6216 18.4319C32.3878 18.1878 32.1541 17.9649 31.9204 17.7633C31.6867 17.551 31.4636 17.3759 31.2511 17.238C31.0386 17.1 30.8474 17.0257 30.6774 17.0151L30.1993 17.7155L29.9284 18.1772C29.7584 18.4743 29.5778 18.7715 29.3866 19.0686C29.1953 19.3764 28.9775 19.6682 28.7332 19.9441C28.6163 20.0184 28.4676 20.0768 28.287 20.1192C28.1064 20.1723 27.9258 20.1988 27.7452 20.1988C27.6389 20.1988 27.5167 20.1882 27.3786 20.167C27.2511 20.1564 27.1343 20.1299 27.028 20.0874C26.9218 20.045 26.8474 19.9866 26.8049 19.9123C26.7518 19.8486 26.7571 19.7637 26.8209 19.6576C26.8315 19.509 26.8793 19.3021 26.9643 19.0368C27.0493 18.7821 27.1449 18.5061 27.2511 18.209C27.368 17.9118 27.4902 17.62 27.6177 17.3335C27.7452 17.0363 27.8567 16.7816 27.9523 16.5694L28.1914 16.0918C28.542 15.2959 28.9032 14.4946 29.275 13.6881C29.6575 12.8815 30.0346 12.0909 30.4065 11.3162C30.5765 10.9553 30.7252 10.6157 30.8527 10.2974C30.9908 9.96838 31.1236 9.65531 31.2511 9.35816C31.3892 9.06101 31.5326 8.76917 31.6814 8.48263C31.8407 8.19609 32.0266 7.90425 32.2391 7.6071Z" fill="#fff"/>
<path d="M45.2886 8.08466C44.683 9.25204 44.1306 10.3133 43.6313 11.2684C43.1426 12.2129 42.691 13.0832 42.2767 13.8791C41.8624 14.6644 41.4799 15.3914 41.1293 16.06C40.7787 16.7286 40.444 17.3653 40.1253 17.9702C39.9766 18.3841 39.78 18.7078 39.5357 18.9413C39.302 19.1747 39.0576 19.3445 38.8026 19.4507C38.5477 19.5674 38.3086 19.6364 38.0855 19.6576C37.8624 19.6894 37.6977 19.7054 37.5915 19.7054C37.0709 19.7054 36.715 19.6417 36.5238 19.5143C36.3326 19.3976 36.2422 19.2331 36.2529 19.0209C36.2635 18.8511 36.3219 18.6441 36.4282 18.4C36.5344 18.1559 36.6619 17.8853 36.8106 17.5882C37.1506 16.9726 37.5384 16.2563 37.974 15.4391C38.4095 14.6114 38.8504 13.7783 39.2967 12.9399C39.7535 12.0909 40.1944 11.2843 40.6193 10.5202C41.0549 9.75613 41.448 9.12469 41.7986 8.6259C42.0111 8.32875 42.2023 8.13242 42.3723 8.03691C42.5529 7.94139 42.7229 7.87241 42.8823 7.82996C43.0416 7.7769 43.1957 7.71323 43.3444 7.63894C43.4931 7.56465 43.6472 7.40016 43.8066 7.14546C43.9234 6.95443 44.0775 6.81116 44.2687 6.71565C44.4706 6.60952 44.6618 6.55646 44.8424 6.55646C45.0549 6.55646 45.2355 6.61483 45.3842 6.73157C45.5436 6.84831 45.6126 7.02872 45.5914 7.27281C45.5701 7.49567 45.4745 7.76629 45.3045 8.08466H45.2886Z" fill="#fff"/>
<path d="M45.7978 10.95C45.9572 10.6211 46.1537 10.2655 46.3874 9.88348C46.6318 9.49082 46.8974 9.13 47.1842 8.80101C47.4711 8.46141 47.7686 8.18548 48.0767 7.97323C48.3848 7.75037 48.6875 7.63894 48.985 7.63894C49.2294 7.63894 49.4525 7.71853 49.6543 7.87772C49.7287 8.23854 49.7924 8.56223 49.8456 8.84876C49.8987 9.1353 49.9359 9.41123 49.9571 9.67654C49.989 9.93124 50.0049 10.1806 50.0049 10.4247C50.0155 10.6582 50.0155 10.9076 50.0049 11.1729C49.9943 11.3321 49.9837 11.5125 49.973 11.7141C49.9624 11.9052 49.9465 12.1068 49.9252 12.3191L50.0527 12.3509C50.2015 12.0962 50.3661 11.8309 50.5467 11.555C50.738 11.279 50.9239 11.0031 51.1045 10.7272C51.2851 10.4406 51.4604 10.1594 51.6304 9.88348C51.8004 9.60756 51.9438 9.34225 52.0607 9.08755C52.2413 8.75856 52.4644 8.47202 52.73 8.22793C52.9956 7.97323 53.2718 7.76629 53.5587 7.6071C53.8561 7.4373 54.1483 7.30995 54.4351 7.22505C54.7326 7.14015 54.9982 7.0977 55.2319 7.0977C55.455 7.0977 55.6356 7.13484 55.7738 7.20913C55.9119 7.28342 55.9756 7.38424 55.965 7.51159C55.965 7.56465 55.9491 7.61771 55.9172 7.67078C55.8959 7.71323 55.8694 7.76098 55.8375 7.81404C55.7525 7.89894 55.7047 8.01038 55.6941 8.14834C55.6941 8.2863 55.6888 8.44549 55.6781 8.6259C55.6675 8.80631 55.6303 9.01326 55.5666 9.24673C55.5028 9.4696 55.37 9.71368 55.1682 9.979C54.892 10.3504 54.5892 10.8227 54.2598 11.3958C53.9305 11.9582 53.5905 12.5578 53.2399 13.1946C52.9 13.8313 52.56 14.4734 52.22 15.1208C51.8801 15.7575 51.5613 16.3412 51.2639 16.8718C50.9664 17.4024 50.6955 17.8482 50.4511 18.209C50.2174 18.5698 50.0315 18.7768 49.8934 18.8298C49.5003 19.0315 49.1922 19.1694 48.9691 19.2437C48.7566 19.3286 48.5335 19.3711 48.2998 19.3711C48.2148 19.3817 48.1245 19.3817 48.0289 19.3711C47.9332 19.3605 47.827 19.3445 47.7101 19.3233C47.5614 19.3127 47.4498 19.2066 47.3755 19.0049C47.3117 18.8033 47.2692 18.5539 47.248 18.2568C47.2267 17.949 47.2214 17.6147 47.2321 17.2539C47.2427 16.8824 47.2533 16.5269 47.2639 16.1873C47.2745 15.8477 47.2745 15.54 47.2639 15.264C47.2639 14.9775 47.2427 14.7652 47.2002 14.6273C46.839 15.3489 46.5415 15.922 46.3078 16.3465C46.0847 16.771 45.8934 17.1106 45.7341 17.3653C45.5853 17.62 45.4578 17.811 45.3516 17.9384C45.2454 18.0657 45.1444 18.1825 45.0488 18.2886L44.7779 18.591C44.6823 18.7608 44.5548 18.9094 44.3954 19.0368C44.2467 19.1641 44.082 19.2702 43.9014 19.3551C43.7314 19.44 43.5508 19.5037 43.3596 19.5462C43.179 19.5886 43.009 19.6098 42.8496 19.6098C42.6584 19.6098 42.499 19.5727 42.3716 19.4984C42.2441 19.4347 42.1856 19.3339 42.1963 19.196C42.1963 19.1004 42.2334 18.9943 42.3078 18.8776C42.4353 18.4212 42.6319 17.8482 42.8975 17.1584C43.1737 16.4579 43.4765 15.7363 43.8058 14.9934C44.1458 14.2399 44.4857 13.5077 44.8257 12.7966C45.1763 12.075 45.495 11.4594 45.7819 10.95H45.7978Z" fill="#fff"/>
<path d="M64.8039 7.46383C65.1863 7.83527 65.3616 8.36589 65.3298 9.05571C65.2979 9.6394 65.1014 10.2815 64.7401 10.9819C64.5277 11.3639 64.2461 11.6452 63.8955 11.8256C63.5449 11.9954 63.205 12.0803 62.8756 12.0803C62.6313 12.0803 62.4294 12.0325 62.2701 11.937C62.1107 11.8415 62.0363 11.7194 62.0469 11.5709L61.9673 11.2207C61.8079 10.9872 61.5848 10.8704 61.298 10.8704C61.0005 10.8704 60.6499 10.9766 60.2462 11.1888C59.8425 11.4011 59.4334 11.6717 59.0191 12.0007C58.6154 12.3297 58.2382 12.6852 57.8876 13.0672C57.5477 13.4493 57.2874 13.8101 57.1068 14.1497C56.958 14.4256 56.8306 14.6803 56.7243 14.9138C56.6181 15.1367 56.5596 15.3648 56.549 15.5983C56.5278 15.8318 56.565 16.0334 56.6606 16.2032C56.7562 16.3624 56.8784 16.4951 57.0271 16.6012C57.1865 16.7073 57.3618 16.7869 57.553 16.84C57.7442 16.8824 57.9355 16.9037 58.1267 16.9037C58.4454 16.9037 58.7588 16.8506 59.0669 16.7445C59.3856 16.6277 59.6725 16.4951 59.9275 16.3465C60.1931 16.1873 60.4162 16.0281 60.5968 15.8689C60.7774 15.6991 60.8942 15.5665 60.9474 15.471L60.9952 15.4073L60.9155 15.2799C60.6818 15.3967 60.4693 15.4551 60.2781 15.4551C60.0974 15.4657 59.9434 15.4285 59.8159 15.3436C59.699 15.2481 59.5822 15.1473 59.4653 15.0412C59.4016 14.9775 59.3272 14.9297 59.2422 14.8979C59.1678 14.8554 59.0988 14.8183 59.035 14.7865C58.9713 14.7546 58.9182 14.7175 58.8757 14.675C58.8438 14.622 58.8279 14.5583 58.8279 14.484C58.8385 14.2505 58.9554 14.0436 59.1785 13.8632C59.4016 13.6721 59.6725 13.513 59.9912 13.3856C60.3205 13.2583 60.6658 13.1627 61.027 13.0991C61.3989 13.0248 61.7389 12.9876 62.0469 12.9876C62.6631 12.9876 63.0881 13.0991 63.3218 13.3219C63.5662 13.5448 63.6777 13.8579 63.6565 14.2611C63.6459 14.484 63.5981 14.7228 63.5131 14.9775C63.4387 15.2216 63.3378 15.471 63.2103 15.7257C63.0934 15.9698 62.9606 16.2032 62.8119 16.4261C62.6631 16.649 62.5091 16.8453 62.3497 17.0151C62.1266 17.2486 61.8185 17.5351 61.4254 17.8747C61.0324 18.2037 60.5649 18.5274 60.0231 18.8457C59.4919 19.1535 58.8969 19.4188 58.2382 19.6417C57.5796 19.8645 56.8837 19.976 56.1506 19.976C55.545 19.976 55.0298 19.9123 54.6048 19.785C54.1905 19.6576 53.8558 19.4719 53.6009 19.2278C53.3565 18.9837 53.1865 18.6866 53.0909 18.3363C52.9953 17.9755 52.9581 17.5616 52.9793 17.0947C53.0112 16.5004 53.1387 15.853 53.3618 15.1526C53.5955 14.4416 53.8983 13.7358 54.2702 13.0354C54.6526 12.3244 55.0935 11.6399 55.5929 10.9819C56.0922 10.3133 56.6287 9.7243 57.2024 9.2149C57.553 8.91775 57.877 8.65774 58.1745 8.43488C58.472 8.2014 58.7747 7.99446 59.0828 7.81404C59.4016 7.63363 59.7468 7.47444 60.1187 7.33648C60.4905 7.19852 60.9208 7.06586 61.4095 6.93851C61.622 6.88545 61.8557 6.84831 62.1107 6.82708C62.3763 6.79524 62.5941 6.77932 62.7641 6.77932C63.2422 6.77932 63.6459 6.843 63.9752 6.97035C64.3152 7.08709 64.5914 7.25158 64.8039 7.46383Z" fill="#fff"/>
<path d="M2.66421 37.7891C1.89928 37.7891 1.29372 37.614 0.847507 37.2638C0.401298 36.9242 0.188818 36.505 0.210066 36.0062C0.22069 35.8364 0.263186 35.6666 0.337554 35.4968C0.401298 35.327 0.491602 35.1731 0.608466 35.0351C0.725331 34.8972 0.863443 34.7857 1.0228 34.7008C1.19279 34.6159 1.3734 34.5735 1.56463 34.5735C1.87272 34.5735 2.20738 34.6212 2.5686 34.7168C2.94044 34.8123 3.28572 34.86 3.60444 34.86C3.83817 34.86 4.03471 34.8282 4.19407 34.7645C4.74652 34.5841 5.14492 34.4037 5.38927 34.2233C5.63363 34.0322 5.76111 33.8518 5.77174 33.682C5.78236 33.5016 5.71862 33.3318 5.58051 33.1726C5.45302 33.0134 5.29897 32.8543 5.11836 32.6951C4.90588 32.4934 4.69871 32.2918 4.49686 32.0902C4.30562 31.8779 4.13564 31.6604 3.9869 31.4375C3.84879 31.204 3.73724 30.9599 3.65225 30.7052C3.56726 30.4399 3.53538 30.1534 3.55663 29.8456C3.55663 29.6334 3.59913 29.3734 3.68412 29.0656C3.83286 28.5774 4.01878 28.137 4.24188 27.7443C4.47561 27.3411 4.72527 26.9855 4.99087 26.6778C5.2671 26.37 5.55395 26.11 5.85142 25.8978C6.15952 25.6749 6.4623 25.4892 6.75977 25.3406C7.24848 25.1071 7.75843 24.9055 8.28963 24.7357C8.83146 24.5553 9.43171 24.4651 10.0904 24.4651C10.271 24.4651 10.4622 24.4757 10.6641 24.4969C10.866 24.5181 11.0731 24.5447 11.2856 24.5765C11.53 24.619 11.7318 24.7039 11.8912 24.8312C12.0505 24.9479 12.2099 25.0753 12.3693 25.2133L12.5127 25.3406C12.672 25.5422 12.7411 25.7386 12.7198 25.9296C12.7198 26.0569 12.6827 26.1843 12.6083 26.3116C12.5446 26.4284 12.4542 26.5345 12.3374 26.63C12.2311 26.7149 12.109 26.7839 11.9709 26.837C11.8327 26.89 11.6946 26.9219 11.5565 26.9325C11.5459 27.1766 11.4237 27.41 11.19 27.6329C10.9669 27.8452 10.5525 27.9884 9.94698 28.0627C9.80887 28.0521 9.68138 28.0468 9.56451 28.0468C9.44765 28.0362 9.33078 28.0309 9.21392 28.0309C8.61898 28.0309 8.18339 28.1317 7.90717 28.3333C7.63094 28.535 7.47689 28.9382 7.44502 29.5432C7.4344 29.7448 7.5247 29.9464 7.71593 30.1481C7.91779 30.3391 8.13558 30.562 8.36931 30.8167C8.61366 31.0607 8.83146 31.3473 9.02269 31.6763C9.21392 32.0053 9.29891 32.4085 9.27767 32.8861C9.26704 33.1196 9.19798 33.4061 9.0705 33.7457C8.95363 34.0747 8.77302 34.4249 8.52867 34.7963C8.29494 35.1572 8.00278 35.518 7.65219 35.8788C7.31222 36.229 6.9032 36.5474 6.42512 36.834C5.95766 37.1205 5.42646 37.3487 4.83151 37.5185C4.24719 37.6989 3.59913 37.7891 2.88732 37.7891H2.66421Z" fill="#fff"/>
<path d="M13.1425 37.0887C12.8451 37.5238 12.5741 37.7997 12.3298 37.9164C12.0854 38.0438 11.8517 38.1075 11.6286 38.1075C11.2674 38.1075 10.9699 38.0385 10.7362 37.9005C10.5131 37.7625 10.4122 37.545 10.4334 37.2478C10.444 36.9825 10.5556 36.6482 10.7681 36.245C11.1718 35.3004 11.5011 34.531 11.7561 33.9367C12.0111 33.3318 12.2235 32.833 12.3935 32.4404C12.5741 32.0371 12.7229 31.7081 12.8397 31.4534C12.9566 31.1987 13.0788 30.9493 13.2063 30.7052C13.3338 30.4505 13.4825 30.1693 13.6525 29.8615C13.8225 29.5432 14.0509 29.1293 14.3377 28.6199C14.2634 28.6305 14.189 28.6411 14.1146 28.6517C14.0509 28.6517 13.9818 28.6517 13.9075 28.6517C13.5887 28.6517 13.3178 28.588 13.0947 28.4607C12.8716 28.3227 12.7707 28.1158 12.7919 27.8398C12.8132 27.4472 12.9354 27.1182 13.1585 26.8529C13.3816 26.5876 13.7056 26.301 14.1306 25.9933C14.428 25.8235 14.8317 25.6484 15.3417 25.468C15.8623 25.2769 16.42 25.1018 17.015 24.9426C17.6099 24.7834 18.2102 24.6508 18.8158 24.5447C19.4319 24.4385 19.9791 24.3855 20.4572 24.3855C20.6059 24.3855 20.7493 24.412 20.8874 24.4651C21.0362 24.5181 21.1637 24.5871 21.2699 24.672C21.3761 24.7569 21.4611 24.8577 21.5249 24.9745C21.5886 25.0806 21.6205 25.1867 21.6205 25.2928C21.5992 25.5051 21.4399 25.6961 21.1424 25.8659C20.9618 25.9614 20.8237 26.1153 20.7281 26.3276C20.6325 26.5292 20.5315 26.7361 20.4253 26.9484C20.3297 27.1606 20.2075 27.357 20.0588 27.5374C19.91 27.7072 19.7029 27.808 19.4373 27.8398C19.3098 27.9035 19.177 27.946 19.0389 27.9672C18.9007 27.9884 18.7679 28.0096 18.6405 28.0309C18.513 28.0415 18.4014 28.0574 18.3058 28.0786C18.2102 28.0999 18.1464 28.1423 18.1146 28.206L17.3018 29.7023C16.9725 30.3073 16.6219 30.9599 16.25 31.6604C15.8782 32.3608 15.5064 33.0506 15.1345 33.7298C14.7627 34.3984 14.4015 35.0298 14.0509 35.6241C13.7109 36.2078 13.4081 36.696 13.1425 37.0887Z" fill="#fff"/>
<path d="M20.2296 36.9454C20.1127 37.2213 19.9109 37.4176 19.624 37.5344C19.3372 37.6617 19.0397 37.7254 18.7316 37.7254C18.5404 37.7254 18.3544 37.7042 18.1738 37.6617C17.9932 37.6193 17.8339 37.5609 17.6957 37.4866C17.5683 37.4123 17.4673 37.3221 17.393 37.216C17.308 37.1099 17.2655 36.9878 17.2655 36.8499L17.3133 36.6588C17.3345 36.3935 17.4726 35.9584 17.7276 35.3535C17.9932 34.738 18.3279 34.0429 18.7316 33.2681C19.1353 32.4828 19.5868 31.6604 20.0861 30.8007C20.5961 29.9411 21.1114 29.1346 21.6319 28.3811C22.1525 27.617 22.6572 26.9537 23.1459 26.3912C23.6346 25.8288 24.0648 25.4467 24.4367 25.2451C24.6598 25.139 24.9413 25.0381 25.2813 24.9426C25.6319 24.8471 25.9772 24.7622 26.3171 24.6879C26.6571 24.6136 26.9599 24.5553 27.2255 24.5128C27.4911 24.4598 27.6664 24.4332 27.7514 24.4332C28.4738 24.4332 28.9944 24.6296 29.3131 25.0222C29.6318 25.4043 29.7806 25.8978 29.7593 26.5027C29.7274 27.0651 29.5681 27.6807 29.2812 28.3493C28.9944 29.0072 28.6119 29.644 28.1338 30.2595C27.6558 30.8644 27.098 31.4057 26.4606 31.8832C25.8337 32.3608 25.1644 32.6951 24.4526 32.8861L24.6279 33.2522V33.2363C24.7448 33.4698 24.8829 33.7298 25.0423 34.0163C25.2122 34.2923 25.3716 34.5788 25.5203 34.8759C25.6691 35.1731 25.7912 35.4649 25.8869 35.7515C25.9931 36.0274 26.0409 36.2821 26.0303 36.5156C26.0197 36.6642 25.9719 36.7968 25.8869 36.9135C25.8125 37.0409 25.7169 37.1523 25.6 37.2478C25.4832 37.3434 25.3557 37.4176 25.2176 37.4707C25.0901 37.5238 24.9679 37.5503 24.851 37.5503C24.7767 37.5503 24.7129 37.5344 24.6598 37.5025C24.6173 37.4707 24.5695 37.4283 24.5164 37.3752C24.4739 37.3327 24.4207 37.285 24.357 37.2319C24.2933 37.1789 24.2083 37.1311 24.102 37.0887C23.9108 37.1417 23.7408 37.1682 23.5921 37.1682C23.284 37.1682 23.0503 37.0462 22.8909 36.8021C22.7422 36.558 22.6147 36.2662 22.5084 35.9266C22.4128 35.587 22.3172 35.2368 22.2216 34.8759C22.126 34.5045 21.9932 34.1967 21.8232 33.9527C21.6107 34.3347 21.4088 34.6902 21.2176 35.0192C21.037 35.3482 20.8723 35.656 20.7236 35.9425L20.2296 36.9454ZM25.3291 27.5692C25.191 27.7815 25.0794 27.9513 24.9944 28.0786C24.9201 28.206 24.8563 28.3121 24.8032 28.397C24.7501 28.4819 24.7023 28.5562 24.6598 28.6199C24.6279 28.6835 24.5907 28.7525 24.5482 28.8268C24.3676 29.1346 24.2295 29.384 24.1339 29.575C24.0383 29.766 23.9639 29.9146 23.9108 30.0207C23.8471 30.1375 23.8046 30.2224 23.7833 30.2754L23.8789 30.355L24.3729 30.0366C24.6173 29.9199 24.8351 29.8138 25.0263 29.7183C25.2282 29.6121 25.4088 29.4954 25.5681 29.368C25.7275 29.2301 25.8762 29.0656 26.0144 28.8746C26.1631 28.6835 26.3118 28.4341 26.4606 28.1264C26.4712 27.999 26.5296 27.8664 26.6359 27.7284C26.7421 27.5798 26.8005 27.4313 26.8112 27.2827C26.8112 27.2084 26.7793 27.1235 26.7155 27.028C26.6624 26.9219 26.5615 26.8688 26.4128 26.8688C26.2428 26.8688 26.0887 26.9219 25.9506 27.028C25.8125 27.1341 25.6903 27.2455 25.5841 27.3623H25.6L25.3928 27.5215L25.3291 27.5692Z" fill="#fff"/>
<path d="M33.1345 25.6271C33.5064 25.3618 33.8994 25.1602 34.3138 25.0222C34.7281 24.8843 35.1318 24.8153 35.5249 24.8153C35.6737 24.8153 35.8224 24.8312 35.9711 24.863C36.1199 24.8843 36.2686 24.9214 36.4173 24.9745C36.6298 24.7941 36.837 24.6614 37.0388 24.5765C37.2513 24.4916 37.4585 24.4492 37.6603 24.4492C37.9897 24.4492 38.2925 24.5394 38.5687 24.7198C38.8449 24.8896 39.0733 25.123 39.254 25.4202C39.254 25.4733 39.2646 25.5422 39.2858 25.6271C39.3177 25.712 39.3443 25.8022 39.3655 25.8978L39.4292 26.2639C39.5142 26.6141 39.5461 26.9962 39.5249 27.41C39.493 27.9937 39.3761 28.6146 39.1743 29.2725C38.9724 29.9199 38.7174 30.5726 38.4093 31.2305C38.1119 31.8779 37.7772 32.504 37.4054 33.109C37.0335 33.7033 36.667 34.2339 36.3058 34.7008C35.9764 35.1147 35.6152 35.5286 35.2221 35.9425C34.8397 36.3458 34.42 36.7066 33.9632 37.025C33.517 37.3434 33.0389 37.5981 32.5289 37.7891C32.019 37.9907 31.4878 38.0915 30.9353 38.0915C30.3192 38.0915 29.7986 37.9907 29.3736 37.7891C28.9593 37.5981 28.6246 37.3487 28.3696 37.0409C28.1253 36.7331 27.95 36.3829 27.8438 35.9903C27.7481 35.5976 27.711 35.2102 27.7322 34.8282C27.7535 34.3612 27.8384 33.8731 27.9872 33.3637C28.1359 32.8543 28.3218 32.3449 28.5449 31.8355C28.768 31.3261 29.0124 30.8273 29.278 30.3391C29.5436 29.8509 29.8039 29.3999 30.0589 28.986V29.0019C30.2288 28.7472 30.436 28.466 30.6804 28.1582C30.9247 27.8398 31.1797 27.5268 31.4453 27.219C31.7215 26.9006 32.0031 26.6035 32.2899 26.3276C32.5874 26.0516 32.8689 25.8182 33.1345 25.6271ZM32.019 35.7196C32.4652 35.2739 32.8955 34.738 33.3098 34.1118C33.7348 33.4751 34.1119 32.8012 34.4413 32.0902C34.7706 31.3791 35.0468 30.6575 35.2699 29.9252C35.493 29.1929 35.6365 28.5031 35.7002 27.8558C35.2965 28.2697 34.845 28.7472 34.3457 29.2885C33.8463 29.8297 33.3576 30.4081 32.8795 31.0236C32.4015 31.6285 31.9659 32.2547 31.5728 32.902C31.1903 33.5494 30.9035 34.1808 30.7122 34.7963L30.6644 35.0988C30.6751 35.1519 30.6857 35.2368 30.6963 35.3535C30.7176 35.4596 30.7494 35.5764 30.7919 35.7037C30.8344 35.8205 30.8929 35.9372 30.9672 36.0539C31.0416 36.1601 31.1372 36.2397 31.2541 36.2927L31.5409 36.0858C31.6153 36.0327 31.695 35.9796 31.78 35.9266C31.8756 35.8629 31.9553 35.7939 32.019 35.7196Z" fill="#fff"/>
<path d="M41.2691 28.8586C41.4285 28.5297 41.625 28.1741 41.8587 27.7921C42.1031 27.3994 42.3687 27.0386 42.6555 26.7096C42.9424 26.37 43.2399 26.0941 43.548 25.8818C43.8561 25.659 44.1588 25.5475 44.4563 25.5475C44.7007 25.5475 44.9238 25.6271 45.1256 25.7863C45.2 26.1472 45.2637 26.4708 45.3169 26.7574C45.37 27.0439 45.4072 27.3198 45.4284 27.5851C45.4603 27.8398 45.4762 28.0892 45.4762 28.3333C45.4868 28.5668 45.4868 28.8162 45.4762 29.0815C45.4656 29.2407 45.455 29.4211 45.4444 29.6227C45.4337 29.8138 45.4178 30.0154 45.3965 30.2277L45.524 30.2595C45.6728 30.0048 45.8374 29.7395 46.018 29.4636C46.2093 29.1876 46.3952 28.9117 46.5758 28.6358C46.7564 28.3493 46.9317 28.068 47.1017 27.7921C47.2717 27.5162 47.4151 27.2509 47.532 26.9962C47.7126 26.6672 47.9357 26.3806 48.2013 26.1365C48.4669 25.8818 48.7431 25.6749 49.03 25.5157C49.3274 25.3459 49.6196 25.2186 49.9064 25.1337C50.2039 25.0488 50.4695 25.0063 50.7032 25.0063C50.9263 25.0063 51.107 25.0435 51.2451 25.1177C51.3832 25.192 51.4469 25.2928 51.4363 25.4202C51.4363 25.4733 51.4204 25.5263 51.3885 25.5794C51.3672 25.6218 51.3407 25.6696 51.3088 25.7227C51.2238 25.8076 51.176 25.919 51.1654 26.0569C51.1654 26.1949 51.1601 26.3541 51.1494 26.5345C51.1388 26.7149 51.1016 26.9219 51.0379 27.1553C50.9742 27.3782 50.8414 27.6223 50.6395 27.8876C50.3633 28.259 50.0605 28.7313 49.7311 29.3044C49.4018 29.8668 49.0618 30.4664 48.7112 31.1032C48.3713 31.7399 48.0313 32.382 47.6913 33.0294C47.3514 33.6661 47.0326 34.2498 46.7352 34.7804C46.4377 35.3111 46.1668 35.7568 45.9224 36.1176C45.6887 36.4784 45.5028 36.6854 45.3647 36.7384C44.9716 36.9401 44.6635 37.078 44.4404 37.1523C44.2279 37.2372 44.0048 37.2797 43.7711 37.2797C43.6861 37.2903 43.5958 37.2903 43.5002 37.2797C43.4045 37.2691 43.2983 37.2531 43.1814 37.2319C43.0327 37.2213 42.9211 37.1152 42.8468 36.9135C42.783 36.7119 42.7405 36.4625 42.7193 36.1654C42.698 35.8576 42.6927 35.5233 42.7034 35.1625C42.714 34.791 42.7246 34.4355 42.7352 34.0959C42.7458 33.7563 42.7458 33.4486 42.7352 33.1726C42.7352 32.8861 42.714 32.6738 42.6715 32.5359C42.3103 33.2575 42.0128 33.8306 41.7791 34.2551C41.556 34.6796 41.3647 35.0192 41.2054 35.2739C41.0566 35.5286 40.9291 35.7196 40.8229 35.847C40.7167 35.9743 40.6157 36.0911 40.5201 36.1972L40.2492 36.4997C40.1536 36.6695 40.0261 36.818 39.8667 36.9454C39.718 37.0727 39.5533 37.1789 39.3727 37.2638C39.2027 37.3487 39.0221 37.4123 38.8309 37.4548C38.6503 37.4972 38.4803 37.5185 38.3209 37.5185C38.1297 37.5185 37.9704 37.4813 37.8429 37.407C37.7154 37.3434 37.6569 37.2425 37.6676 37.1046C37.6676 37.0091 37.7048 36.9029 37.7791 36.7862C37.9066 36.3299 38.1032 35.7568 38.3688 35.067C38.645 34.3665 38.9478 33.6449 39.2771 32.902C39.6171 32.1485 39.957 31.4163 40.297 30.7052C40.6476 29.9836 40.9663 29.368 41.2532 28.8586H41.2691Z" fill="#fff"/>
<path d="M60.2752 25.3724C60.6577 25.7439 60.833 26.2745 60.8011 26.9643C60.7692 27.548 60.5727 28.1901 60.2114 28.8905C59.999 29.2725 59.7174 29.5538 59.3668 29.7342C59.0162 29.904 58.6763 29.9889 58.3469 29.9889C58.1026 29.9889 57.9007 29.9411 57.7414 29.8456C57.582 29.7501 57.5076 29.6281 57.5183 29.4795L57.4386 29.1293C57.2792 28.8958 57.0561 28.7791 56.7693 28.7791C56.4718 28.7791 56.1212 28.8852 55.7175 29.0974C55.3138 29.3097 54.9047 29.5803 54.4904 29.9093C54.0867 30.2383 53.7095 30.5938 53.359 30.9758C53.019 31.3579 52.7587 31.7187 52.5781 32.0583C52.4294 32.3342 52.3019 32.5889 52.1956 32.8224C52.0894 33.0453 52.031 33.2735 52.0203 33.5069C51.9991 33.7404 52.0363 33.942 52.1319 34.1118C52.2275 34.271 52.3497 34.4037 52.4984 34.5098C52.6578 34.6159 52.8331 34.6955 53.0243 34.7486C53.2155 34.791 53.4068 34.8123 53.598 34.8123C53.9167 34.8123 54.2301 34.7592 54.5382 34.6531C54.8569 34.5363 55.1438 34.4037 55.3988 34.2551C55.6644 34.0959 55.8875 33.9367 56.0681 33.7775C56.2487 33.6077 56.3656 33.4751 56.4187 33.3796L56.4665 33.3159L56.3868 33.1886C56.1531 33.3053 55.9406 33.3637 55.7494 33.3637C55.5687 33.3743 55.4147 33.3371 55.2872 33.2522C55.1703 33.1567 55.0535 33.0559 54.9366 32.9498C54.8729 32.8861 54.7985 32.8383 54.7135 32.8065C54.6391 32.7641 54.5701 32.7269 54.5063 32.6951C54.4426 32.6632 54.3895 32.6261 54.347 32.5836C54.3151 32.5306 54.2992 32.4669 54.2992 32.3926C54.3098 32.1591 54.4267 31.9522 54.6498 31.7718C54.8729 31.5808 55.1438 31.4216 55.4625 31.2942C55.7919 31.1669 56.1371 31.0714 56.4983 31.0077C56.8702 30.9334 57.2102 30.8963 57.5183 30.8963C58.1345 30.8963 58.5594 31.0077 58.7931 31.2305C59.0375 31.4534 59.149 31.7665 59.1278 32.1698C59.1172 32.3926 59.0694 32.6314 58.9844 32.8861C58.91 33.1302 58.8091 33.3796 58.6816 33.6343C58.5647 33.8784 58.4319 34.1118 58.2832 34.3347C58.1344 34.5576 57.9804 34.7539 57.821 34.9237C57.5979 35.1572 57.2898 35.4437 56.8967 35.7833C56.5037 36.1123 56.0362 36.436 55.4944 36.7544C54.9632 37.0621 54.3682 37.3274 53.7095 37.5503C53.0509 37.7732 52.355 37.8846 51.6219 37.8846C51.0164 37.8846 50.5011 37.8209 50.0761 37.6936C49.6618 37.5662 49.3271 37.3805 49.0722 37.1364C48.8278 36.8923 48.6578 36.5952 48.5622 36.245C48.4666 35.8841 48.4294 35.4702 48.4507 35.0033C48.4825 34.409 48.61 33.7616 48.8331 33.0612C49.0668 32.3502 49.3696 31.6444 49.7415 30.944C50.1239 30.233 50.5648 29.5485 51.0642 28.8905C51.5635 28.2219 52.1 27.6329 52.6737 27.1235C53.0243 26.8264 53.3483 26.5663 53.6458 26.3435C53.9433 26.11 54.2461 25.9031 54.5541 25.7227C54.8729 25.5422 55.2182 25.3831 55.59 25.2451C55.9618 25.1071 56.3921 24.9745 56.8808 24.8471C57.0933 24.7941 57.327 24.7569 57.582 24.7357C57.8476 24.7039 58.0654 24.6879 58.2354 24.6879C58.7135 24.6879 59.1172 24.7516 59.4465 24.879C59.7865 24.9957 60.0627 25.1602 60.2752 25.3724Z" fill="#fff"/>
<path d="M7.60438 54.7266C7.10505 54.992 6.5526 55.2201 5.94704 55.4112C5.35209 55.6022 4.76777 55.6977 4.19407 55.6977C3.76911 55.6977 3.37071 55.6499 2.99887 55.5544C2.62703 55.4695 2.303 55.3156 2.02677 55.0928C1.75055 54.8699 1.53276 54.5781 1.3734 54.2172C1.22466 53.8458 1.16623 53.3895 1.1981 52.8482C1.2406 52.116 1.36808 51.389 1.58056 50.6674C1.80367 49.9457 2.0852 49.2559 2.42517 48.5979C2.77577 47.9293 3.16885 47.3032 3.60444 46.7195C4.05065 46.1358 4.50748 45.6158 4.97494 45.1595C5.45302 44.6925 5.9311 44.2945 6.40918 43.9656C6.88726 43.6366 7.33347 43.3978 7.74781 43.2492C8.19402 43.037 8.64554 42.8778 9.10237 42.7716C9.5592 42.6549 10.0054 42.5965 10.441 42.5965C10.5366 42.5965 10.6269 42.6018 10.7119 42.6125C10.7969 42.6125 10.8819 42.6178 10.9669 42.6284H10.9509C11.6521 42.7239 12.1674 42.9574 12.4967 43.3288C12.8261 43.6896 12.9801 44.1513 12.9589 44.7137C12.9376 45.0321 12.8526 45.3929 12.7039 45.7962C12.5658 46.1889 12.3799 46.5815 12.1461 46.9742C12.0187 47.1865 11.8593 47.3722 11.6681 47.5314C11.4875 47.6799 11.2909 47.8073 11.0784 47.9134C10.866 48.0089 10.6482 48.0832 10.4251 48.1363C10.2126 48.1893 10.016 48.2159 9.83543 48.2159C9.54858 48.2159 9.34141 48.1575 9.21392 48.0408C9.09706 47.924 9.04394 47.7648 9.05456 47.5632C9.06518 47.4465 9.10237 47.3191 9.16611 47.1811C9.22986 47.0326 9.26704 46.8734 9.27767 46.7036C9.28829 46.5232 9.26173 46.4011 9.19798 46.3375C9.14487 46.2738 9.06518 46.2419 8.95894 46.2419C8.87395 46.2526 8.78365 46.2632 8.68803 46.2738C8.59242 46.2844 8.50211 46.3109 8.41712 46.3534L8.16214 46.4807C8.04528 46.5444 7.92841 46.6134 7.81155 46.6877C7.69469 46.7513 7.5672 46.8362 7.42909 46.9424C7.3016 47.0379 7.15286 47.1652 6.98288 47.3244C6.81289 47.4836 6.61104 47.6905 6.37731 47.9452C6.05859 48.2955 5.78236 48.6457 5.54863 48.9959C5.31491 49.3461 5.12367 49.6804 4.97494 49.9988C4.8262 50.3171 4.71465 50.6037 4.64028 50.8584C4.57654 51.1131 4.53935 51.32 4.52873 51.4792C4.51811 51.6915 4.54467 51.8772 4.60841 52.0364C4.67215 52.1849 4.75714 52.307 4.86339 52.4025C4.96963 52.498 5.08649 52.5723 5.21398 52.6254C5.34147 52.6678 5.46364 52.689 5.58051 52.689C5.80361 52.689 5.98953 52.6572 6.13827 52.5935C6.29763 52.5299 6.44105 52.4609 6.56854 52.3866C6.70665 52.3017 6.84476 52.2274 6.98288 52.1637C7.12099 52.1 7.28566 52.0682 7.47689 52.0682C7.54064 52.0682 7.62563 52.0735 7.73187 52.0841C7.83811 52.0947 7.93904 52.1213 8.03466 52.1637C8.13027 52.1956 8.20995 52.2433 8.2737 52.307C8.34806 52.3707 8.38525 52.4556 8.38525 52.5617C8.37462 52.6784 8.33744 52.8058 8.2737 52.9437C8.22058 53.0817 8.1887 53.209 8.17808 53.3258C8.17808 53.3895 8.19401 53.4425 8.22589 53.485C8.26838 53.5274 8.31088 53.5646 8.35338 53.5964C8.4065 53.6176 8.4543 53.6442 8.4968 53.676C8.5393 53.7078 8.56054 53.745 8.56054 53.7874C8.56054 53.8723 8.52336 53.9572 8.44899 54.0421C8.38525 54.1164 8.30557 54.196 8.20995 54.2809C8.11434 54.3552 8.00809 54.4348 7.89123 54.5197C7.78499 54.594 7.68406 54.663 7.58845 54.7266H7.60438Z" fill="#fff"/>
<path d="M15.8912 43.5358C16.2631 43.2704 16.6562 43.0688 17.0705 42.9308C17.4848 42.7929 17.8886 42.7239 18.2816 42.7239C18.4304 42.7239 18.5791 42.7398 18.7279 42.7716C18.8766 42.7929 19.0253 42.83 19.1741 42.8831C19.3865 42.7027 19.5937 42.57 19.7956 42.4851C20.008 42.4002 20.2152 42.3578 20.4171 42.3578C20.7464 42.3578 21.0492 42.448 21.3254 42.6284C21.6016 42.7982 21.8301 43.0317 22.0107 43.3288C22.0107 43.3819 22.0213 43.4509 22.0425 43.5358C22.0744 43.6207 22.101 43.7109 22.1222 43.8064L22.186 44.1725C22.271 44.5227 22.3028 44.9048 22.2816 45.3187C22.2497 45.9023 22.1329 46.5232 21.931 47.1811C21.7291 47.8285 21.4742 48.4812 21.1661 49.1392C20.8686 49.7865 20.5339 50.4127 20.1621 51.0176C19.7903 51.6119 19.4237 52.1425 19.0625 52.6094C18.7332 53.0233 18.3719 53.4372 17.9789 53.8511C17.5964 54.2544 17.1767 54.6152 16.7199 54.9336C16.2737 55.252 15.7956 55.5067 15.2857 55.6977C14.7757 55.8993 14.2445 56.0001 13.6921 56.0001C13.0759 56.0001 12.5553 55.8993 12.1303 55.6977C11.716 55.5067 11.3813 55.2573 11.1264 54.9495C10.882 54.6417 10.7067 54.2915 10.6005 53.8989C10.5049 53.5062 10.4677 53.1188 10.4889 52.7368C10.5102 52.2698 10.5952 51.7817 10.7439 51.2723C10.8926 50.7629 11.0786 50.2535 11.3017 49.7441C11.5248 49.2347 11.7691 48.7359 12.0347 48.2477C12.3003 47.7595 12.5606 47.3085 12.8156 46.8946V46.9105C12.9856 46.6558 13.1927 46.3746 13.4371 46.0668C13.6814 45.7485 13.9364 45.4354 14.202 45.1276C14.4782 44.8092 14.7598 44.5121 15.0466 44.2362C15.3441 43.9603 15.6256 43.7268 15.8912 43.5358ZM14.7757 53.6282C15.2219 53.1825 15.6522 52.6466 16.0665 52.0205C16.4915 51.3837 16.8687 50.7098 17.198 49.9988C17.5273 49.2877 17.8036 48.5661 18.0267 47.8338C18.2498 47.1016 18.3932 46.4117 18.4569 45.7644C18.0532 46.1783 17.6017 46.6558 17.1024 47.1971C16.6031 47.7383 16.1143 48.3167 15.6363 48.9322C15.1582 49.5371 14.7226 50.1633 14.3295 50.8106C13.947 51.458 13.6602 52.0894 13.469 52.705L13.4212 53.0074C13.4318 53.0605 13.4424 53.1454 13.453 53.2621C13.4743 53.3682 13.5061 53.485 13.5486 53.6123C13.5911 53.7291 13.6496 53.8458 13.7239 53.9625C13.7983 54.0687 13.8939 54.1483 14.0108 54.2013L14.2976 53.9944C14.372 53.9413 14.4517 53.8883 14.5367 53.8352C14.6323 53.7715 14.712 53.7025 14.7757 53.6282Z" fill="#fff"/>
<path d="M23.0219 54.663C22.8519 55.0132 22.5969 55.2732 22.2569 55.443C21.9276 55.6128 21.6089 55.6977 21.3008 55.6977C21.0139 55.6977 20.7696 55.6287 20.5677 55.4907C20.3552 55.3528 20.2596 55.1458 20.2809 54.8699C20.2809 54.8062 20.2968 54.7373 20.3287 54.663C20.3499 54.5781 20.3818 54.4879 20.4243 54.3923C20.5199 54.1589 20.6633 53.8352 20.8546 53.4213C21.0458 52.9968 21.2636 52.5299 21.5079 52.0205C21.7523 51.5111 22.0126 50.9751 22.2888 50.4127C22.565 49.8502 22.8306 49.2983 23.0856 48.7571C23.3406 48.2159 23.5743 47.7118 23.7868 47.2448C24.0099 46.7779 24.1852 46.3852 24.3127 46.0668C24.5783 45.5468 24.8014 45.1276 24.982 44.8093C25.1626 44.4803 25.322 44.2203 25.4601 44.0292C25.6088 43.8276 25.7469 43.6737 25.8744 43.5676C26.0019 43.4615 26.1453 43.366 26.3047 43.2811C26.7615 43.0476 27.1599 42.9043 27.4999 42.8512C27.8505 42.7876 28.2117 42.7451 28.5835 42.7239C28.7429 42.7133 28.9288 42.6921 29.1413 42.6602C29.3538 42.6284 29.5663 42.5965 29.7787 42.5647C29.9912 42.5223 30.1984 42.4904 30.4002 42.4692C30.6127 42.4374 30.7933 42.4214 30.9421 42.4214C31.2927 42.4214 31.5476 42.5116 31.707 42.6921C31.8664 42.8619 31.9354 43.0688 31.9142 43.3129C31.9035 43.557 31.8239 43.8223 31.6751 44.1088C31.537 44.3954 31.3511 44.6766 31.1174 44.9525C30.8836 45.2178 30.6127 45.4672 30.3046 45.7007C29.9965 45.9236 29.6725 46.0934 29.3325 46.2101H29.3485C29.1041 46.2844 28.9076 46.3375 28.7588 46.3693C28.6101 46.3905 28.4879 46.4011 28.3923 46.4011C28.2861 46.4011 28.2064 46.3905 28.1533 46.3693C28.1108 46.3481 28.0736 46.3268 28.0417 46.3056C28.0205 46.2844 28.0045 46.2632 27.9939 46.2419C27.9939 46.2207 27.978 46.2101 27.9461 46.2101C27.9142 46.2101 27.877 46.2366 27.8345 46.2897C27.792 46.3428 27.7442 46.4064 27.6911 46.4807C27.6486 46.555 27.6008 46.6346 27.5477 46.7195C27.5052 46.7938 27.4733 46.8522 27.4521 46.8946C27.144 47.4465 26.8518 47.8657 26.5756 48.1522C26.2994 48.4281 26.1135 48.6085 26.0178 48.6934L27.6752 48.5661H27.7549C27.9992 48.5661 28.1798 48.6404 28.2967 48.7889C28.4242 48.9375 28.4826 49.102 28.472 49.2824C28.4507 49.5159 28.3339 49.6804 28.1214 49.7759C27.9302 49.8608 27.7974 49.9457 27.723 50.0306C27.6592 50.1049 27.6061 50.1845 27.5636 50.2694C27.5318 50.3437 27.4893 50.418 27.4361 50.4923C27.3936 50.5665 27.2874 50.6408 27.1174 50.7151C26.9474 50.7788 26.6925 50.8425 26.3525 50.9061C26.0125 50.9698 25.5451 51.0282 24.9501 51.0812L24.3446 52.1956C24.1852 52.4609 24.0205 52.7262 23.8505 52.9915C23.6912 53.2462 23.569 53.4638 23.484 53.6442C23.4628 53.6654 23.4362 53.7131 23.4043 53.7874C23.3831 53.8511 23.3512 53.936 23.3087 54.0421C23.2768 54.1376 23.2343 54.2438 23.1812 54.3605C23.1387 54.4666 23.0909 54.5621 23.0378 54.647L23.0219 54.663Z" fill="#fff"/>
<path d="M29.9316 54.663C29.7616 55.0132 29.5067 55.2732 29.1667 55.443C28.8373 55.6128 28.5186 55.6977 28.2105 55.6977C27.9237 55.6977 27.6793 55.6287 27.4775 55.4907C27.265 55.3528 27.1694 55.1458 27.1906 54.8699C27.1906 54.8062 27.2066 54.7373 27.2384 54.663C27.2597 54.5781 27.2916 54.4879 27.3341 54.3923C27.4297 54.1589 27.5731 53.8352 27.7643 53.4213C27.9556 52.9968 28.1733 52.5299 28.4177 52.0205C28.6621 51.5111 28.9223 50.9751 29.1986 50.4127C29.4748 49.8502 29.7404 49.2983 29.9954 48.7571C30.2503 48.2159 30.4841 47.7118 30.6966 47.2448C30.9197 46.7779 31.095 46.3852 31.2224 46.0668C31.488 45.5468 31.7111 45.1276 31.8918 44.8093C32.0724 44.4803 32.2317 44.2203 32.3698 44.0292C32.5186 43.8276 32.6567 43.6737 32.7842 43.5676C32.9117 43.4615 33.0551 43.366 33.2144 43.2811C33.6713 43.0476 34.0697 42.9043 34.4096 42.8512C34.7602 42.7876 35.1215 42.7451 35.4933 42.7239C35.6527 42.7133 35.8386 42.6921 36.0511 42.6602C36.2635 42.6284 36.476 42.5965 36.6885 42.5647C36.901 42.5223 37.1081 42.4904 37.31 42.4692C37.5225 42.4374 37.7031 42.4214 37.8518 42.4214C38.2024 42.4214 38.4574 42.5116 38.6168 42.6921C38.7761 42.8619 38.8452 43.0688 38.8239 43.3129C38.8133 43.557 38.7336 43.8223 38.5849 44.1088C38.4468 44.3954 38.2609 44.6766 38.0271 44.9525C37.7934 45.2178 37.5225 45.4672 37.2144 45.7007C36.9063 45.9236 36.5823 46.0934 36.2423 46.2101H36.2582C36.0139 46.2844 35.8173 46.3375 35.6686 46.3693C35.5199 46.3905 35.3977 46.4011 35.3021 46.4011C35.1958 46.4011 35.1161 46.3905 35.063 46.3693C35.0205 46.3481 34.9833 46.3268 34.9515 46.3056C34.9302 46.2844 34.9143 46.2632 34.9037 46.2419C34.9037 46.2207 34.8877 46.2101 34.8559 46.2101C34.824 46.2101 34.7868 46.2366 34.7443 46.2897C34.7018 46.3428 34.654 46.4064 34.6009 46.4807C34.5584 46.555 34.5106 46.6346 34.4575 46.7195C34.415 46.7938 34.3831 46.8522 34.3618 46.8946C34.0537 47.4465 33.7616 47.8657 33.4854 48.1522C33.2091 48.4281 33.0232 48.6085 32.9276 48.6934L34.5849 48.5661H34.6646C34.909 48.5661 35.0896 48.6404 35.2065 48.7889C35.3339 48.9375 35.3924 49.102 35.3817 49.2824C35.3605 49.5159 35.2436 49.6804 35.0312 49.7759C34.8399 49.8608 34.7071 49.9457 34.6328 50.0306C34.569 50.1049 34.5159 50.1845 34.4734 50.2694C34.4415 50.3437 34.399 50.418 34.3459 50.4923C34.3034 50.5665 34.1972 50.6408 34.0272 50.7151C33.8572 50.7788 33.6022 50.8425 33.2623 50.9061C32.9223 50.9698 32.4548 51.0282 31.8599 51.0812L31.2543 52.1956C31.095 52.4609 30.9303 52.7262 30.7603 52.9915C30.6009 53.2462 30.4788 53.4638 30.3938 53.6442C30.3725 53.6654 30.346 53.7131 30.3141 53.7874C30.2928 53.8511 30.261 53.936 30.2185 54.0421C30.1866 54.1376 30.1441 54.2438 30.091 54.3605C30.0485 54.4666 30.0007 54.5621 29.9476 54.647L29.9316 54.663Z" fill="#fff"/>
<path d="M45.5265 42.501C45.8134 42.5116 46.0205 42.5859 46.148 42.7239C46.2755 42.8619 46.3286 43.0317 46.3074 43.2333C46.2968 43.4455 46.2277 43.6684 46.1002 43.9019C45.9834 44.1354 45.8187 44.3582 45.6062 44.5705C45.4043 44.7827 45.16 44.9684 44.8731 45.1276C44.5969 45.2868 44.2941 45.3876 43.9648 45.4301C43.6779 45.5044 43.4283 45.5734 43.2158 45.637C43.0139 45.6901 42.8386 45.7485 42.6899 45.8121C42.5412 45.8758 42.4084 45.9501 42.2915 46.035C42.1853 46.1199 42.0843 46.2207 41.9887 46.3375L41.8931 46.4489C41.7019 46.6717 41.5372 46.8893 41.3991 47.1016C41.261 47.3032 41.1441 47.5154 41.0485 47.7383L40.8573 48.1522C41.0591 48.2371 41.2557 48.2795 41.4469 48.2795C41.7125 48.2795 41.9781 48.2583 42.2437 48.2159C42.5093 48.1628 42.7324 48.1363 42.913 48.1363C43.0936 48.1363 43.1839 48.1893 43.1839 48.2955C43.1839 48.3167 43.1627 48.3697 43.1202 48.4546C43.0352 48.6138 42.9343 48.7836 42.8174 48.9641C42.7112 49.1339 42.5784 49.2983 42.419 49.4575C42.2703 49.6167 42.1003 49.7653 41.909 49.9033C41.7178 50.0306 41.5053 50.1314 41.2716 50.2057H41.2875C41.0751 50.2482 40.9316 50.28 40.8573 50.3012C40.7829 50.3225 40.7138 50.3437 40.6501 50.3649C40.5864 50.3755 40.496 50.3914 40.3792 50.4127C40.2623 50.4233 40.0658 50.4339 39.7896 50.4445C39.6939 50.5612 39.5664 50.7257 39.4071 50.938C39.2584 51.1396 39.1096 51.3572 38.9609 51.5906C38.8121 51.8241 38.6847 52.047 38.5784 52.2592C38.4722 52.4609 38.4137 52.6201 38.4031 52.7368C38.4031 52.8005 38.4669 52.8535 38.5943 52.896C38.7218 52.9278 38.8706 52.9544 39.0406 52.9756C39.2105 52.9862 39.3752 52.9915 39.5346 52.9915C39.6939 52.9915 39.8002 52.9915 39.8533 52.9915C40.0658 52.9915 40.2783 52.9809 40.4907 52.9597C40.7138 52.9384 40.9901 52.9066 41.3194 52.8641C41.4044 52.9066 41.4628 52.9544 41.4947 53.0074C41.5266 53.0605 41.5425 53.1135 41.5425 53.1666C41.5319 53.2197 41.516 53.278 41.4947 53.3417C41.4841 53.3948 41.4788 53.4478 41.4788 53.5009C41.4575 53.6813 41.5584 53.8246 41.7816 53.9307C41.8028 53.9519 41.8134 53.9838 41.8134 54.0262C41.8134 54.1111 41.7603 54.2225 41.6541 54.3605C41.5478 54.4879 41.4097 54.6258 41.2397 54.7744C41.0804 54.9336 40.8891 55.0822 40.666 55.2201C40.4536 55.3581 40.2358 55.4642 40.0127 55.5385H40.0286C39.5186 55.6658 39.0671 55.7561 38.674 55.8091C38.2916 55.8728 37.8879 55.9046 37.4629 55.9046C37.2929 55.9046 37.0486 55.9046 36.7298 55.9046C36.4217 55.9046 36.1136 55.8728 35.8055 55.8091C35.4974 55.7561 35.2265 55.6552 34.9928 55.5067C34.7697 55.3581 34.6688 55.1405 34.69 54.854C34.69 54.8222 34.7006 54.7744 34.7219 54.7107C34.8813 53.8829 35.0884 53.0976 35.3434 52.3547C35.5984 51.6013 35.9065 50.8637 36.2677 50.142C36.6289 49.4098 37.0379 48.6775 37.4948 47.9452C37.9622 47.2024 38.4828 46.4224 39.0565 45.6052C39.1734 45.4354 39.2583 45.2497 39.3115 45.048C39.3752 44.8358 39.4283 44.6288 39.4708 44.4272C39.524 44.2256 39.5877 44.0452 39.6621 43.886C39.7471 43.7268 39.8692 43.61 40.0286 43.5358C40.8573 43.2386 41.6806 42.9839 42.4987 42.7716C43.3274 42.5488 44.071 42.4374 44.7297 42.4374C44.8572 42.4374 44.9847 42.4427 45.1122 42.4533C45.2503 42.4639 45.3831 42.4798 45.5106 42.501H45.5265Z" fill="#fff"/>
<path d="M54.0392 42.501C54.3261 42.5116 54.5332 42.5859 54.6607 42.7239C54.7882 42.8619 54.8413 43.0317 54.8201 43.2333C54.8095 43.4455 54.7404 43.6684 54.6129 43.9019C54.4961 44.1354 54.3314 44.3582 54.1189 44.5705C53.917 44.7827 53.6727 44.9684 53.3858 45.1276C53.1096 45.2868 52.8068 45.3876 52.4775 45.4301C52.1906 45.5044 51.941 45.5734 51.7285 45.637C51.5266 45.6901 51.3513 45.7485 51.2026 45.8121C51.0539 45.8758 50.9211 45.9501 50.8042 46.035C50.698 46.1199 50.597 46.2207 50.5014 46.3375L50.4058 46.4489C50.2146 46.6717 50.0499 46.8893 49.9118 47.1016C49.7737 47.3032 49.6568 47.5154 49.5612 47.7383L49.37 48.1522C49.5718 48.2371 49.7684 48.2795 49.9596 48.2795C50.2252 48.2795 50.4908 48.2583 50.7564 48.2159C51.022 48.1628 51.2451 48.1363 51.4257 48.1363C51.6063 48.1363 51.6966 48.1893 51.6966 48.2955C51.6966 48.3167 51.6754 48.3697 51.6329 48.4546C51.5479 48.6138 51.447 48.7836 51.3301 48.9641C51.2239 49.1339 51.0911 49.2983 50.9317 49.4575C50.783 49.6167 50.613 49.7653 50.4217 49.9033C50.2305 50.0306 50.018 50.1314 49.7843 50.2057H49.8002C49.5878 50.2482 49.4443 50.28 49.37 50.3012C49.2956 50.3225 49.2265 50.3437 49.1628 50.3649C49.0991 50.3755 49.0088 50.3914 48.8919 50.4127C48.775 50.4233 48.5785 50.4339 48.3023 50.4445C48.2066 50.5612 48.0791 50.7257 47.9198 50.938C47.771 51.1396 47.6223 51.3572 47.4736 51.5906C47.3248 51.8241 47.1974 52.047 47.0911 52.2592C46.9849 52.4609 46.9264 52.6201 46.9158 52.7368C46.9158 52.8005 46.9796 52.8535 47.1071 52.896C47.2345 52.9278 47.3833 52.9544 47.5533 52.9756C47.7232 52.9862 47.8879 52.9915 48.0473 52.9915C48.2066 52.9915 48.3129 52.9915 48.366 52.9915C48.5785 52.9915 48.791 52.9809 49.0034 52.9597C49.2265 52.9384 49.5028 52.9066 49.8321 52.8641C49.9171 52.9066 49.9755 52.9544 50.0074 53.0074C50.0393 53.0605 50.0552 53.1135 50.0552 53.1666C50.0446 53.2197 50.0287 53.278 50.0074 53.3417C49.9968 53.3948 49.9915 53.4478 49.9915 53.5009C49.9702 53.6813 50.0712 53.8246 50.2943 53.9307C50.3155 53.9519 50.3261 53.9838 50.3261 54.0262C50.3261 54.1111 50.273 54.2225 50.1668 54.3605C50.0605 54.4879 49.9224 54.6258 49.7524 54.7744C49.5931 54.9336 49.4018 55.0822 49.1787 55.2201C48.9663 55.3581 48.7485 55.4642 48.5254 55.5385H48.5413C48.0313 55.6658 47.5798 55.7561 47.1867 55.8091C46.8043 55.8728 46.4006 55.9046 45.9756 55.9046C45.8056 55.9046 45.5613 55.9046 45.2425 55.9046C44.9344 55.9046 44.6263 55.8728 44.3182 55.8091C44.0102 55.7561 43.7392 55.6552 43.5055 55.5067C43.2824 55.3581 43.1815 55.1405 43.2027 54.854C43.2027 54.8222 43.2133 54.7744 43.2346 54.7107C43.394 53.8829 43.6011 53.0976 43.8561 52.3547C44.1111 51.6013 44.4192 50.8637 44.7804 50.142C45.1416 49.4098 45.5506 48.6775 46.0075 47.9452C46.4749 47.2024 46.9955 46.4224 47.5692 45.6052C47.6861 45.4354 47.771 45.2497 47.8242 45.048C47.8879 44.8358 47.941 44.6288 47.9835 44.4272C48.0366 44.2256 48.1004 44.0452 48.1748 43.886C48.2598 43.7268 48.3819 43.61 48.5413 43.5358C49.37 43.2386 50.1933 42.9839 51.0114 42.7716C51.84 42.5488 52.5837 42.4374 53.2424 42.4374C53.3699 42.4374 53.4974 42.4427 53.6249 42.4533C53.763 42.4639 53.8958 42.4798 54.0233 42.501H54.0392Z" fill="#fff"/>
<path d="M0.827611 4.29431C0.569806 4.29431 0.365711 4.23926 0.215325 4.12915C0.0649394 4.02237 -0.00667297 3.89057 0.000488266 3.73375C0.00406888 3.68036 0.0183914 3.62697 0.0434557 3.57359C0.0649394 3.5202 0.0953746 3.47182 0.134761 3.42844C0.174148 3.38507 0.220696 3.35003 0.274405 3.32334C0.331695 3.29664 0.392566 3.2833 0.457017 3.2833C0.560855 3.2833 0.673644 3.29831 0.795385 3.32834C0.920707 3.35837 1.03708 3.37339 1.1445 3.37339C1.22327 3.37339 1.28951 3.36338 1.34322 3.34336C1.52941 3.28663 1.66368 3.22991 1.74604 3.17319C1.82839 3.11313 1.87136 3.0564 1.87494 3.00302C1.87852 2.94629 1.85704 2.8929 1.81049 2.84285C1.76752 2.7928 1.7156 2.74275 1.65473 2.6927C1.58312 2.62931 1.5133 2.56591 1.44527 2.50251C1.38082 2.43578 1.32353 2.36738 1.2734 2.29731C1.22685 2.2239 1.18925 2.14716 1.16061 2.06708C1.13196 1.98366 1.12122 1.89357 1.12838 1.7968C1.12838 1.73007 1.14271 1.64832 1.17135 1.55156C1.22148 1.39807 1.28414 1.2596 1.35933 1.13614C1.43811 1.00935 1.52225 0.897568 1.61177 0.800804C1.70486 0.70404 1.80154 0.622291 1.9018 0.555558C2.00563 0.485487 2.10768 0.427095 2.20794 0.380382C2.37265 0.306975 2.54452 0.243578 2.72355 0.190191C2.90616 0.133467 3.10846 0.105105 3.33046 0.105105C3.39133 0.105105 3.45578 0.108442 3.52382 0.115116C3.59185 0.121789 3.66167 0.130131 3.73328 0.140141C3.81564 0.153487 3.88367 0.180181 3.93738 0.220221C3.99109 0.256925 4.0448 0.296965 4.0985 0.340342L4.14684 0.380382C4.20055 0.443779 4.22383 0.505507 4.21666 0.565568C4.21666 0.605608 4.20413 0.645648 4.17907 0.685688C4.15758 0.722392 4.12715 0.755759 4.08776 0.785789C4.05196 0.812482 4.01078 0.834171 3.96423 0.850854C3.91768 0.867538 3.87114 0.877548 3.82459 0.880884C3.82101 0.957628 3.77983 1.03104 3.70106 1.10111C3.62586 1.16784 3.48622 1.21288 3.28212 1.23624C3.23558 1.2329 3.19261 1.23124 3.15322 1.23124C3.11383 1.2279 3.07445 1.22623 3.03506 1.22623C2.83455 1.22623 2.68774 1.25793 2.59465 1.32133C2.50155 1.38472 2.44963 1.51152 2.43889 1.70171C2.43531 1.76511 2.46574 1.8285 2.53019 1.8919C2.59823 1.95196 2.67163 2.02203 2.7504 2.10211C2.83276 2.17885 2.90616 2.26894 2.97061 2.37238C3.03506 2.47582 3.06371 2.60261 3.05654 2.75276C3.05296 2.82617 3.02969 2.91626 2.98672 3.02304C2.94734 3.12647 2.88647 3.23658 2.80411 3.35337C2.72534 3.46681 2.62687 3.58026 2.50871 3.69371C2.39413 3.80382 2.25628 3.90392 2.09515 3.99401C1.9376 4.0841 1.75857 4.15584 1.55806 4.20923C1.36112 4.26595 1.14271 4.29431 0.902804 4.29431H0.827611Z" fill="#fff"/>
<path d="M4.35912 4.07409C4.25886 4.21089 4.16756 4.29765 4.0852 4.33435C4.00285 4.37439 3.92408 4.39441 3.84888 4.39441C3.72714 4.39441 3.62688 4.37272 3.54811 4.32935C3.47292 4.28597 3.4389 4.21757 3.44606 4.12414C3.44964 4.04072 3.48724 3.93562 3.55885 3.80882C3.69492 3.51186 3.80591 3.26995 3.89185 3.0831C3.97778 2.8929 4.0494 2.73608 4.10669 2.61262C4.16756 2.48583 4.21769 2.38239 4.25707 2.30231C4.29646 2.22223 4.33764 2.14382 4.3806 2.06708C4.42357 1.98699 4.4737 1.89857 4.53099 1.80181C4.58828 1.70171 4.66526 1.57158 4.76194 1.41142C4.73688 1.41475 4.71181 1.41809 4.68675 1.42143C4.66526 1.42143 4.64199 1.42143 4.61692 1.42143C4.50951 1.42143 4.4182 1.40141 4.34301 1.36137C4.26781 1.31799 4.2338 1.25292 4.24096 1.16617C4.24812 1.04271 4.2893 0.939276 4.36449 0.855859C4.43968 0.772442 4.54889 0.682352 4.69212 0.585588C4.79237 0.532201 4.92844 0.477146 5.10031 0.420422C5.27576 0.360362 5.46374 0.305306 5.66426 0.255256C5.86477 0.205206 6.06707 0.163497 6.27117 0.13013C6.47885 0.0967637 6.66325 0.0800803 6.82437 0.0800803C6.8745 0.0800803 6.92284 0.088422 6.96939 0.105105C7.01952 0.121789 7.06249 0.143477 7.09829 0.170171C7.1341 0.196864 7.16274 0.228563 7.18423 0.265266C7.20571 0.298633 7.21645 0.332 7.21645 0.365367C7.20929 0.432101 7.15558 0.492161 7.05532 0.545548C6.99445 0.575578 6.94791 0.62396 6.91568 0.690693C6.88346 0.75409 6.84944 0.819156 6.81363 0.885889C6.78141 0.952623 6.74023 1.01435 6.6901 1.07108C6.63997 1.12446 6.57015 1.15616 6.48064 1.16617C6.43767 1.18619 6.39291 1.19954 6.34636 1.20621C6.29981 1.21288 6.25506 1.21956 6.21209 1.22623C6.16912 1.22957 6.13153 1.23457 6.0993 1.24125C6.06707 1.24792 6.04559 1.26127 6.03485 1.28129L5.76093 1.75176C5.64993 1.94195 5.53177 2.14716 5.40645 2.36738C5.28113 2.5876 5.15581 2.80448 5.03049 3.01803C4.90516 3.22824 4.78342 3.42677 4.66526 3.61363C4.55068 3.79715 4.44864 3.95063 4.35912 4.07409Z" fill="#fff"/>
<path d="M8.52612 0.240241C8.59415 0.213548 8.66039 0.190191 8.72484 0.170171C8.79287 0.146814 8.85375 0.135136 8.90745 0.135136C8.96474 0.135136 9.02024 0.141809 9.07395 0.155156C9.13124 0.165166 9.18137 0.181849 9.22434 0.205206C9.26731 0.228563 9.30132 0.256924 9.32639 0.290291C9.35145 0.323658 9.36219 0.360362 9.35861 0.400402C9.35861 0.450452 9.3246 0.513849 9.25657 0.590593C9.36398 0.64398 9.42843 0.729065 9.44992 0.845849C9.34608 1.09944 9.24582 1.35136 9.14915 1.60161C9.05605 1.85186 8.96295 2.10211 8.86986 2.35236C8.77676 2.59928 8.68188 2.84786 8.5852 3.09811C8.48852 3.34836 8.38647 3.60028 8.27906 3.85387L8.22535 3.96398C8.21102 4.00068 8.19849 4.03405 8.18775 4.06408C8.17701 4.09411 8.16269 4.12748 8.14478 4.16418C8.08749 4.21089 8.01946 4.2476 7.94069 4.27429C7.86191 4.30098 7.78493 4.31433 7.70974 4.31433C7.66319 4.31433 7.61485 4.30933 7.56472 4.29932C7.51818 4.29264 7.47342 4.2793 7.43045 4.25928C7.39106 4.24259 7.35884 4.2209 7.33377 4.19421C7.30871 4.16752 7.29618 4.13582 7.29618 4.09912C7.29976 4.0524 7.32124 3.98734 7.36063 3.90392C7.4036 3.81717 7.43582 3.72541 7.4573 3.62864L7.5325 3.39341C7.47163 3.40675 7.41255 3.42511 7.35526 3.44846C7.30155 3.47182 7.25142 3.49684 7.20487 3.52354C7.1619 3.54689 7.12252 3.56858 7.08671 3.5886C7.05449 3.60862 7.02942 3.62364 7.01152 3.63365C6.96139 3.66034 6.91663 3.67869 6.87724 3.6887C6.84144 3.69538 6.80742 3.70038 6.7752 3.70372C6.74655 3.70372 6.71791 3.70706 6.68926 3.71373C6.6642 3.71707 6.63913 3.72708 6.61407 3.74376C6.47801 3.9206 6.33836 4.06742 6.19514 4.1842C6.05191 4.30098 5.89795 4.35938 5.73324 4.35938C5.69743 4.35938 5.65983 4.3527 5.62045 4.33936C5.58464 4.32935 5.55242 4.31266 5.52377 4.28931C5.49513 4.26595 5.47185 4.23592 5.45395 4.19922C5.43247 4.16251 5.42351 4.11747 5.42709 4.06408C5.43068 4.00068 5.45037 3.92394 5.48618 3.83385C5.5184 3.74376 5.556 3.657 5.59896 3.57359C5.64193 3.48683 5.68311 3.41009 5.7225 3.34336C5.76188 3.27329 5.79053 3.2249 5.80843 3.19821C5.9803 2.93461 6.16291 2.67102 6.35627 2.40742C6.54962 2.14382 6.75371 1.88856 6.96855 1.64165C7.18339 1.3914 7.40897 1.15282 7.64529 0.92593C7.88161 0.695698 8.13225 0.482151 8.39722 0.285286L8.39185 0.290291L8.52612 0.240241ZM7.17802 2.95296L7.68288 2.93795C7.73301 2.79114 7.78314 2.64265 7.83327 2.4925C7.88698 2.33902 7.94248 2.18886 7.99977 2.04205L8.15553 1.62663L8.11256 1.60661L7.8279 1.91692C7.79925 1.97031 7.76524 2.0287 7.72585 2.0921C7.69004 2.15216 7.65603 2.20888 7.6238 2.26227L7.17802 2.95296Z" fill="#fff"/>
<path d="M10.8314 0.640643C10.8422 0.727397 10.8529 0.832502 10.8636 0.95596C10.878 1.07942 10.8905 1.1962 10.9012 1.30631L10.9496 1.26127L11.1859 0.996C11.2539 0.919256 11.3255 0.840844 11.4007 0.760764C11.4759 0.677347 11.5529 0.597266 11.6317 0.520522C11.7105 0.440442 11.7892 0.368703 11.868 0.305306C11.9468 0.238573 12.0238 0.181849 12.099 0.135136L12.0936 0.140141C12.1759 0.106774 12.2672 0.0900905 12.3675 0.0900905C12.4391 0.0900905 12.5036 0.105106 12.5609 0.135136C12.6217 0.165166 12.6486 0.218553 12.6414 0.295297C12.6343 0.395397 12.5913 0.507176 12.5125 0.630633C12.4337 0.75409 12.3407 0.879216 12.2332 1.00601C12.1294 1.12947 12.022 1.24792 11.911 1.36137C11.8036 1.47481 11.7158 1.57325 11.6478 1.65666C11.4974 1.85019 11.3506 2.03204 11.2074 2.20221C11.0677 2.36905 10.9317 2.53755 10.7992 2.70772C10.6667 2.87455 10.536 3.04806 10.4071 3.22824C10.2818 3.40842 10.1583 3.60362 10.0365 3.81383L10.0795 3.84386C10.0867 3.84386 10.0992 3.86388 10.1171 3.90392C10.1386 3.94062 10.1475 3.98233 10.1439 4.02905C10.1439 4.07242 10.1189 4.11747 10.0687 4.16418H10.0741C9.95238 4.26428 9.82169 4.33602 9.68204 4.3794C9.5424 4.42277 9.40992 4.44446 9.28459 4.44446C9.19866 4.44446 9.1181 4.43612 9.0429 4.41944C8.97129 4.40275 8.90863 4.3794 8.85492 4.34937C8.80121 4.32267 8.75824 4.28931 8.72602 4.24927C8.69737 4.21256 8.68305 4.17085 8.68305 4.12414C8.69021 4.0841 8.70274 4.04907 8.72065 4.01904C8.80658 3.85887 8.91042 3.70205 9.03216 3.54856C9.1539 3.39174 9.27743 3.23491 9.40275 3.07809L9.8754 2.4875C9.86823 2.49083 9.85749 2.4925 9.84317 2.4925C9.79304 2.4925 9.75724 2.47081 9.73575 2.42744C9.71427 2.38406 9.70711 2.33067 9.71427 2.26728C9.71427 2.24392 9.71606 2.21889 9.71964 2.1922C9.72322 2.16217 9.72859 2.13381 9.73575 2.10712C9.75366 1.93027 9.77335 1.74175 9.79483 1.54155C9.81632 1.34135 9.85391 1.13114 9.90762 0.910914C9.91836 0.837507 9.9488 0.765769 9.99893 0.695698C10.0526 0.622291 10.1135 0.557226 10.1815 0.500502C10.2532 0.443779 10.3266 0.398734 10.4017 0.365367C10.4805 0.328663 10.5521 0.310311 10.6166 0.310311C10.6703 0.310311 10.7151 0.326995 10.7509 0.360362C10.7867 0.393729 10.8081 0.448784 10.8153 0.525528L10.8314 0.640643Z" fill="#fff"/>
<path d="M16.5825 0.240241C16.6505 0.213548 16.7168 0.190191 16.7812 0.170171C16.8493 0.146814 16.9101 0.135136 16.9638 0.135136C17.0211 0.135136 17.0766 0.141809 17.1303 0.155156C17.1876 0.165166 17.2378 0.181849 17.2807 0.205206C17.3237 0.228563 17.3577 0.256924 17.3828 0.290291C17.4078 0.323658 17.4186 0.360362 17.415 0.400402C17.415 0.450452 17.381 0.513849 17.313 0.590593C17.4204 0.64398 17.4848 0.729065 17.5063 0.845849C17.4025 1.09944 17.3022 1.35136 17.2055 1.60161C17.1124 1.85186 17.0193 2.10211 16.9262 2.35236C16.8331 2.59928 16.7383 2.84786 16.6416 3.09811C16.5449 3.34836 16.4429 3.60028 16.3354 3.85387L16.2817 3.96398C16.2674 4.00068 16.2549 4.03405 16.2441 4.06408C16.2334 4.09411 16.2191 4.12748 16.2012 4.16418C16.1439 4.21089 16.0758 4.2476 15.9971 4.27429C15.9183 4.30098 15.8413 4.31433 15.7661 4.31433C15.7196 4.31433 15.6712 4.30933 15.6211 4.29932C15.5746 4.29264 15.5298 4.2793 15.4868 4.25928C15.4475 4.24259 15.4152 4.2209 15.3902 4.19421C15.3651 4.16752 15.3526 4.13582 15.3526 4.09912C15.3561 4.0524 15.3776 3.98734 15.417 3.90392C15.46 3.81717 15.4922 3.72541 15.5137 3.62864L15.5889 3.39341C15.528 3.40675 15.4689 3.42511 15.4116 3.44846C15.3579 3.47182 15.3078 3.49684 15.2613 3.52354C15.2183 3.54689 15.1789 3.56858 15.1431 3.5886C15.1109 3.60862 15.0858 3.62364 15.0679 3.63365C15.0178 3.66034 14.973 3.67869 14.9336 3.6887C14.8978 3.69538 14.8638 3.70038 14.8316 3.70372C14.8029 3.70372 14.7743 3.70706 14.7457 3.71373C14.7206 3.71707 14.6955 3.72708 14.6705 3.74376C14.5344 3.9206 14.3947 4.06742 14.2515 4.1842C14.1083 4.30098 13.9543 4.35938 13.7896 4.35938C13.7538 4.35938 13.7162 4.3527 13.6768 4.33936C13.641 4.32935 13.6088 4.31266 13.5802 4.28931C13.5515 4.26595 13.5282 4.23592 13.5103 4.19922C13.4889 4.16251 13.4799 4.11747 13.4835 4.06408C13.4871 4.00068 13.5068 3.92394 13.5426 3.83385C13.5748 3.74376 13.6124 3.657 13.6554 3.57359C13.6983 3.48683 13.7395 3.41009 13.7789 3.34336C13.8183 3.27329 13.8469 3.2249 13.8648 3.19821C14.0367 2.93461 14.2193 2.67102 14.4127 2.40742C14.606 2.14382 14.8101 1.88856 15.0249 1.64165C15.2398 1.3914 15.4654 1.15282 15.7017 0.92593C15.938 0.695698 16.1886 0.482151 16.4536 0.285286L16.4482 0.290291L16.5825 0.240241ZM15.2344 2.95296L15.7393 2.93795C15.7894 2.79114 15.8395 2.64265 15.8897 2.4925C15.9434 2.33902 15.9989 2.18886 16.0562 2.04205L16.2119 1.62663L16.1689 1.60661L15.8843 1.91692C15.8556 1.97031 15.8216 2.0287 15.7822 2.0921C15.7464 2.15216 15.7124 2.20888 15.6802 2.26227L15.2344 2.95296Z" fill="#fff"/>
<path d="M22.2769 0.465467C22.2625 0.502171 22.2536 0.523859 22.25 0.530533C22.2464 0.533869 22.2411 0.538874 22.2339 0.545548L22.1856 0.620623H22.1909C22.1193 0.690693 22.0495 0.770774 21.9815 0.860864C21.917 0.947618 21.8526 1.03604 21.7881 1.12613C21.7272 1.21622 21.6664 1.30631 21.6055 1.3964C21.5446 1.48316 21.4855 1.56157 21.4283 1.63164C21.2743 1.83184 21.1257 2.03538 20.9825 2.24225C20.8392 2.44913 20.6907 2.65433 20.5367 2.85787C20.3827 3.05807 20.2198 3.25493 20.0479 3.44846C19.8796 3.64199 19.6934 3.82718 19.4894 4.00402C19.4142 4.07075 19.3264 4.12247 19.2262 4.15918C19.1259 4.19922 19.0292 4.21924 18.9361 4.21924C18.8359 4.21924 18.7464 4.19755 18.6676 4.15417C18.5888 4.11079 18.5351 4.0474 18.5065 3.96398L18.4528 3.60862L18.2057 3.7888C18.152 3.83218 18.0965 3.87556 18.0392 3.91893C17.9819 3.96231 17.9246 4.00235 17.8673 4.03906C17.8136 4.07576 17.7581 4.10579 17.7008 4.12915C17.6471 4.15584 17.597 4.17085 17.5504 4.17419H17.5558H17.4914C17.4377 4.17419 17.3857 4.17085 17.3356 4.16418C17.2855 4.15751 17.2389 4.14416 17.196 4.12414C17.1566 4.10412 17.1226 4.07576 17.0939 4.03906C17.0653 4.00569 17.0474 3.96064 17.0402 3.90392C17.0903 3.4835 17.1709 3.07809 17.2819 2.6877C17.3929 2.29731 17.5075 1.93027 17.6256 1.58659L17.8083 1.05106V1.05606C17.862 0.915919 17.9228 0.799136 17.9909 0.705708C18.0589 0.608945 18.1287 0.532201 18.2003 0.475477C18.2719 0.415417 18.3418 0.37204 18.4098 0.345347C18.4778 0.318653 18.5405 0.305306 18.5978 0.305306C18.6622 0.305306 18.7141 0.32199 18.7535 0.355357C18.7965 0.388723 18.8162 0.433769 18.8126 0.490492C18.8126 0.503839 18.8108 0.515518 18.8072 0.525528C18.8072 0.535538 18.8055 0.547216 18.8019 0.560563C18.7804 0.677347 18.7607 0.775779 18.7428 0.855859C18.7249 0.932603 18.707 1.00434 18.6891 1.07108C18.6748 1.13447 18.6586 1.19787 18.6407 1.26127C18.6264 1.32466 18.6121 1.39974 18.5978 1.48649C18.5942 1.50651 18.587 1.53487 18.5763 1.57158C18.5656 1.60494 18.5548 1.63998 18.5441 1.67668C18.5333 1.71339 18.5226 1.75009 18.5118 1.78679C18.5047 1.82016 18.5011 1.84852 18.5011 1.87188C18.4939 1.90858 18.5029 1.92693 18.528 1.92693C18.5459 1.92693 18.5656 1.91859 18.587 1.90191C18.6264 1.84852 18.6622 1.80014 18.6945 1.75676C18.7303 1.71339 18.7661 1.67001 18.8019 1.62663C18.8413 1.58326 18.8842 1.53654 18.9308 1.48649C18.9809 1.43644 19.0418 1.37638 19.1134 1.30631C19.1957 1.24959 19.2799 1.22123 19.3658 1.22123C19.4303 1.22123 19.4894 1.23791 19.5431 1.27128C19.6003 1.30464 19.6469 1.34802 19.6827 1.40141C19.7221 1.45479 19.7507 1.51652 19.7686 1.58659C19.7901 1.65333 19.7991 1.72173 19.7955 1.7918C19.7919 1.80848 19.7901 1.82517 19.7901 1.84185C19.7901 1.8552 19.7883 1.87021 19.7848 1.88689L19.8277 1.90191C19.9817 1.62496 20.1178 1.38973 20.2359 1.1962C20.3541 0.999337 20.4561 0.839176 20.5421 0.715719C20.628 0.588925 20.6978 0.497166 20.7515 0.440442C20.8088 0.383718 20.8536 0.355357 20.8858 0.355357C20.8965 0.355357 20.9055 0.357025 20.9126 0.360362C20.9234 0.360362 20.9359 0.360362 20.9502 0.360362C20.9681 0.357025 20.9914 0.353688 21.0201 0.350352C21.0487 0.343678 21.0881 0.323658 21.1382 0.290291C21.2421 0.223558 21.3495 0.171839 21.4605 0.135136C21.5751 0.0950954 21.6879 0.0750753 21.7988 0.0750753C21.9278 0.0750753 22.037 0.105105 22.1265 0.165166C22.2196 0.225226 22.2697 0.325327 22.2769 0.465467Z" fill="#fff"/>
<path d="M23.6214 0.240241C23.6894 0.213548 23.7556 0.190191 23.8201 0.170171C23.8881 0.146814 23.949 0.135136 24.0027 0.135136C24.06 0.135136 24.1155 0.141809 24.1692 0.155156C24.2265 0.165166 24.2766 0.181849 24.3196 0.205206C24.3625 0.228563 24.3966 0.256924 24.4216 0.290291C24.4467 0.323658 24.4574 0.360362 24.4538 0.400402C24.4538 0.450452 24.4198 0.513849 24.3518 0.590593C24.4592 0.64398 24.5237 0.729065 24.5452 0.845849C24.4413 1.09944 24.3411 1.35136 24.2444 1.60161C24.1513 1.85186 24.0582 2.10211 23.9651 2.35236C23.872 2.59928 23.7771 2.84786 23.6804 3.09811C23.5838 3.34836 23.4817 3.60028 23.3743 3.85387L23.3206 3.96398C23.3063 4.00068 23.2937 4.03405 23.283 4.06408C23.2722 4.09411 23.2579 4.12748 23.24 4.16418C23.1827 4.21089 23.1147 4.2476 23.0359 4.27429C22.9572 4.30098 22.8802 4.31433 22.805 4.31433C22.7584 4.31433 22.7101 4.30933 22.66 4.29932C22.6134 4.29264 22.5687 4.2793 22.5257 4.25928C22.4863 4.24259 22.4541 4.2209 22.429 4.19421C22.4039 4.16752 22.3914 4.13582 22.3914 4.09912C22.395 4.0524 22.4165 3.98734 22.4559 3.90392C22.4988 3.81717 22.5311 3.72541 22.5525 3.62864L22.6277 3.39341C22.5669 3.40675 22.5078 3.42511 22.4505 3.44846C22.3968 3.47182 22.3467 3.49684 22.3001 3.52354C22.2571 3.54689 22.2178 3.56858 22.1819 3.5886C22.1497 3.60862 22.1247 3.62364 22.1068 3.63365C22.0566 3.66034 22.0119 3.67869 21.9725 3.6887C21.9367 3.69538 21.9027 3.70038 21.8704 3.70372C21.8418 3.70372 21.8131 3.70706 21.7845 3.71373C21.7594 3.71707 21.7344 3.72708 21.7093 3.74376C21.5732 3.9206 21.4336 4.06742 21.2904 4.1842C21.1472 4.30098 20.9932 4.35938 20.8285 4.35938C20.7927 4.35938 20.7551 4.3527 20.7157 4.33936C20.6799 4.32935 20.6477 4.31266 20.619 4.28931C20.5904 4.26595 20.5671 4.23592 20.5492 4.19922C20.5277 4.16251 20.5188 4.11747 20.5223 4.06408C20.5259 4.00068 20.5456 3.92394 20.5814 3.83385C20.6136 3.74376 20.6512 3.657 20.6942 3.57359C20.7372 3.48683 20.7783 3.41009 20.8177 3.34336C20.8571 3.27329 20.8858 3.2249 20.9037 3.19821C21.0755 2.93461 21.2581 2.67102 21.4515 2.40742C21.6449 2.14382 21.8489 1.88856 22.0638 1.64165C22.2786 1.3914 22.5042 1.15282 22.7405 0.92593C22.9768 0.695698 23.2275 0.482151 23.4925 0.285286L23.4871 0.290291L23.6214 0.240241ZM22.2733 2.95296L22.7781 2.93795C22.8282 2.79114 22.8784 2.64265 22.9285 2.4925C22.9822 2.33902 23.0377 2.18886 23.095 2.04205L23.2508 1.62663L23.2078 1.60661L22.9231 1.91692C22.8945 1.97031 22.8605 2.0287 22.8211 2.0921C22.7853 2.15216 22.7513 2.20888 22.719 2.26227L22.2733 2.95296Z" fill="#fff"/>
<path d="M25.5024 0.435437C25.5704 0.332 25.6456 0.280281 25.7279 0.280281C25.753 0.280281 25.7816 0.285286 25.8139 0.295297C25.8461 0.245246 25.8801 0.201869 25.9159 0.165166C25.9517 0.128462 25.9965 0.0984322 26.0502 0.0750753C26.1039 0.0483818 26.1701 0.0300301 26.2489 0.0200201C26.3277 0.00667338 26.4297 0 26.5551 0C26.6159 0 26.675 0.00333664 26.7323 0.0100099C26.7932 0.0166834 26.8451 0.0283618 26.8881 0.0450452C26.9346 0.0617286 26.9722 0.0850854 27.0008 0.115116C27.0295 0.145146 27.042 0.183518 27.0384 0.230231C27.0349 0.256924 27.0277 0.286955 27.017 0.320322C27.0098 0.350352 26.9937 0.383719 26.9686 0.420422L26.8451 0.550553C26.8021 0.587256 26.7627 0.63397 26.7269 0.690693C26.6947 0.747417 26.6553 0.807477 26.6088 0.870874V0.865869L26.496 1.01602C26.41 1.12613 26.3241 1.23624 26.2382 1.34635C26.1522 1.45313 26.0681 1.56324 25.9857 1.67668V1.67168L25.9589 1.70171L25.9857 1.74175C26.1075 1.68503 26.24 1.61329 26.3832 1.52653C26.5264 1.43644 26.6643 1.35136 26.7967 1.27128C26.9328 1.18786 27.0563 1.11612 27.1673 1.05606C27.2819 0.996 27.3714 0.96597 27.4359 0.96597C27.4645 0.96597 27.4932 0.972643 27.5218 0.98599C27.554 0.996 27.5916 1.01102 27.6346 1.03104L27.683 1.05106C27.7116 1.05773 27.7313 1.07942 27.742 1.11612C27.7528 1.14949 27.7564 1.1912 27.7528 1.24125C27.7492 1.31799 27.7295 1.39974 27.6937 1.48649C27.6615 1.56991 27.6203 1.63331 27.5702 1.67668C27.4198 1.8235 27.273 1.94862 27.1297 2.05206C26.9901 2.15216 26.8505 2.23725 26.7108 2.30732C26.5712 2.37405 26.4315 2.42911 26.2919 2.47248C26.1558 2.51252 26.018 2.54756 25.8783 2.57759L25.8837 2.63264C25.9804 2.64265 26.0663 2.68103 26.1415 2.74776C26.2203 2.81116 26.2865 2.88957 26.3402 2.983C26.3975 3.07309 26.4423 3.17152 26.4745 3.27829C26.5067 3.38173 26.5282 3.47516 26.5389 3.55857L26.5765 3.80882C26.5873 3.86888 26.5962 3.9206 26.6034 3.96398C26.6106 4.00402 26.6141 4.03906 26.6141 4.06909C26.6106 4.12581 26.5765 4.17586 26.5121 4.21924C26.4512 4.26261 26.3545 4.2843 26.2221 4.2843C26.1755 4.28096 26.12 4.25594 26.0556 4.20923C25.9947 4.16585 25.9284 4.11079 25.8568 4.04406C25.7852 3.98066 25.71 3.91226 25.6313 3.83885C25.5525 3.76211 25.4737 3.69204 25.3949 3.62864C25.3162 3.56191 25.241 3.50685 25.1694 3.46348C25.0977 3.4201 25.0333 3.39674 24.976 3.39341L24.8149 3.61363L24.7236 3.75877C24.6663 3.8522 24.6054 3.94563 24.541 4.03906C24.4765 4.13582 24.4031 4.22758 24.3207 4.31433C24.2814 4.33769 24.2312 4.35604 24.1704 4.36939C24.1095 4.38607 24.0486 4.39441 23.9878 4.39441C23.9519 4.39441 23.9108 4.39108 23.8642 4.3844C23.8213 4.38107 23.7819 4.37272 23.7461 4.35938C23.7103 4.34603 23.6852 4.32768 23.6709 4.30432C23.653 4.2843 23.6548 4.25761 23.6762 4.22424C23.6798 4.17753 23.6959 4.11246 23.7246 4.02905C23.7532 3.94896 23.7854 3.86221 23.8213 3.76878C23.8606 3.67536 23.9018 3.5836 23.9448 3.49351C23.9878 3.40008 24.0253 3.32 24.0576 3.25327L24.1381 3.10312C24.2563 2.85286 24.378 2.60094 24.5034 2.34736C24.6323 2.09377 24.7594 1.84519 24.8847 1.60161C24.942 1.48816 24.9921 1.38139 25.0351 1.28129C25.0816 1.17785 25.1264 1.07942 25.1694 0.98599C25.2159 0.892563 25.2642 0.800804 25.3144 0.710714C25.3681 0.620623 25.4307 0.528864 25.5024 0.435437Z" fill="#fff"/>
<path d="M30.6362 0.145146C30.7329 0.148482 30.8027 0.171839 30.8457 0.215216C30.8887 0.258593 30.9066 0.31198 30.8994 0.375377C30.8958 0.44211 30.8726 0.512181 30.8296 0.585588C30.7902 0.658995 30.7347 0.729065 30.6631 0.795799C30.5951 0.862533 30.5127 0.920925 30.416 0.970975C30.3229 1.02103 30.2209 1.05272 30.1099 1.06607C30.0132 1.08943 29.9291 1.11112 29.8575 1.13114C29.7894 1.14782 29.7304 1.16617 29.6802 1.18619C29.6301 1.20621 29.5853 1.22957 29.5459 1.25626C29.5101 1.28295 29.4761 1.31465 29.4439 1.35136L29.4117 1.38639C29.3472 1.45646 29.2917 1.52486 29.2452 1.5916C29.1986 1.65499 29.1592 1.72173 29.127 1.7918L29.0626 1.92193C29.1306 1.94862 29.1968 1.96197 29.2613 1.96197C29.3508 1.96197 29.4403 1.9553 29.5298 1.94195C29.6194 1.92527 29.6945 1.91692 29.7554 1.91692C29.8163 1.91692 29.8467 1.93361 29.8467 1.96697C29.8467 1.97365 29.8396 1.99033 29.8252 2.01702C29.7966 2.06708 29.7626 2.12046 29.7232 2.17719C29.6874 2.23057 29.6426 2.28229 29.5889 2.33234C29.5388 2.38239 29.4815 2.42911 29.417 2.47248C29.3526 2.51252 29.281 2.54422 29.2022 2.56758H29.2076C29.136 2.58092 29.0876 2.59093 29.0626 2.59761C29.0375 2.60428 29.0142 2.61095 28.9927 2.61763C28.9713 2.62097 28.9408 2.62597 28.9014 2.63264C28.8621 2.63598 28.7958 2.63932 28.7027 2.64265C28.6705 2.67936 28.6275 2.73108 28.5738 2.79781C28.5237 2.86121 28.4736 2.92961 28.4234 3.00302C28.3733 3.07642 28.3303 3.14649 28.2945 3.21323C28.2587 3.27662 28.239 3.32667 28.2354 3.36338C28.2354 3.3834 28.2569 3.40008 28.2999 3.41343C28.3429 3.42344 28.393 3.43178 28.4503 3.43845C28.5076 3.44179 28.5631 3.44346 28.6168 3.44346C28.6705 3.44346 28.7063 3.44346 28.7242 3.44346C28.7958 3.44346 28.8674 3.44012 28.939 3.43345C29.0142 3.42677 29.1073 3.41676 29.2183 3.40342C29.247 3.41676 29.2667 3.43178 29.2774 3.44846C29.2881 3.46515 29.2935 3.48183 29.2935 3.49851C29.2899 3.5152 29.2846 3.53355 29.2774 3.55357C29.2738 3.57025 29.272 3.58693 29.272 3.60362C29.2649 3.66034 29.2989 3.70539 29.3741 3.73875C29.3812 3.74543 29.3848 3.75544 29.3848 3.76878C29.3848 3.79548 29.3669 3.83051 29.3311 3.87389C29.2953 3.91393 29.2488 3.95731 29.1915 4.00402C29.1378 4.05407 29.0733 4.10078 28.9981 4.14416C28.9265 4.18754 28.8531 4.2209 28.7779 4.24426H28.7833C28.6114 4.2843 28.4592 4.31266 28.3267 4.32935C28.1978 4.34937 28.0618 4.35938 27.9186 4.35938C27.8613 4.35938 27.7789 4.35938 27.6715 4.35938C27.5677 4.35938 27.4638 4.34937 27.36 4.32935C27.2561 4.31266 27.1648 4.28097 27.0861 4.23425C27.0109 4.18754 26.9769 4.11914 26.984 4.02905C26.984 4.01904 26.9876 4.00402 26.9948 3.984C27.0485 3.72374 27.1183 3.47682 27.2042 3.24326C27.2902 3.00635 27.394 2.77445 27.5157 2.54756C27.6375 2.31733 27.7753 2.0871 27.9293 1.85686C28.0868 1.6233 28.2623 1.37805 28.4557 1.12113C28.495 1.06774 28.5237 1.00935 28.5416 0.94595C28.5631 0.879216 28.581 0.814151 28.5953 0.750754C28.6132 0.687357 28.6347 0.630633 28.6597 0.580583C28.6884 0.530533 28.7296 0.493829 28.7833 0.470472C29.0626 0.377045 29.3401 0.296965 29.6158 0.230231C29.8951 0.160161 30.1457 0.125126 30.3677 0.125126C30.4107 0.125126 30.4536 0.126794 30.4966 0.13013C30.5431 0.133467 30.5879 0.138472 30.6309 0.145146H30.6362Z" fill="#fff"/>
</svg>
